<svg class="SVGInline-svg SVG-component__content-svg" viewBox="0 0 31 30"  xmlns="http://www.w3.org/2000/svg"><path fill-rule="evenodd" clip-rule="evenodd" d="M13.5137 3.84878L9.95511 11.0104C9.53019 11.8655 8.44485 12.126 7.68508 11.5552L4.80793 9.39347C3.73565 8.58783 2.23003 9.46835 2.38624 10.8097L3.96517 24.3673C4.05549 25.1429 4.70569 25.7274 5.47815 25.7274H5.92484V26.4924C5.92484 26.9173 6.27971 27.2617 6.71746 27.2617H23.0325C23.4703 27.2617 23.8251 26.9173 23.8251 26.4924V25.7274H24.2719C25.0443 25.7274 25.6945 25.1429 25.7848 24.3673L27.3638 10.8097C27.52 9.46835 26.0143 8.58784 24.9421 9.39347L22.0649 11.5552C21.3052 12.126 20.2198 11.8655 19.7949 11.0104L16.2363 3.84878C15.674 2.71707 14.076 2.71707 13.5137 3.84878ZM10.9907 18.0342C10.9907 17.6972 11.0997 17.3603 11.3177 17.0807L13.6785 14.0526C14.2885 13.2702 15.4615 13.2702 16.0714 14.0526L18.4323 17.0807C18.6114 17.3105 18.7169 17.5789 18.7488 17.8542C18.7558 17.914 18.7592 17.9741 18.7592 18.0342C18.7592 18.3711 18.6503 18.708 18.4323 18.9876L16.0714 22.0157C15.4615 22.7981 14.2885 22.7981 13.6785 22.0157L11.3177 18.9876C11.0997 18.708 10.9907 18.3711 10.9907 18.0342Z" fill="white"></path></svg>