<svg class="SVGInline-svg SVG-component__content-svg" viewBox="0 0 30 30" fill="none" xmlns="http://www.w3.org/2000/svg"><g clip-path="url(#clip0_2445_96223423q4rfg242rfedv23)"><path d="M19.095 29.8398V29.0387C19.4081 29.0387 19.7304 29.0203 20.0619 28.9834C20.3933 28.9282 20.6972 28.8361 20.9735 28.7072C21.2497 28.5783 21.4799 28.4033 21.6641 28.1823C21.8482 27.9429 21.9403 27.6298 21.9403 27.2431C21.9403 26.8748 21.8298 26.3591 21.6088 25.6961C21.3878 25.0331 21.1392 24.3517 20.863 23.6519C20.5867 22.9521 20.3105 22.2983 20.0342 21.6906C19.758 21.0829 19.5646 20.6501 19.4541 20.3923H8.51489C8.44123 20.5396 8.32152 20.7882 8.15578 21.1381C8.00845 21.4696 7.8335 21.8564 7.63092 22.2983C7.42834 22.7219 7.22576 23.1731 7.02318 23.6519C6.8206 24.1308 6.62723 24.6004 6.44307 25.0608C6.27733 25.5212 6.1392 25.9447 6.02871 26.3315C5.91821 26.7182 5.86296 27.0221 5.86296 27.2431C5.86296 27.6114 5.98267 27.9153 6.22208 28.1547C6.46149 28.3757 6.75615 28.5506 7.10606 28.6796C7.45596 28.8085 7.81508 28.9006 8.1834 28.9558C8.55173 28.9926 8.87401 29.0203 9.15025 29.0387V29.8398H0.255226V29.0387C0.91821 29.0018 1.4799 28.8545 1.94031 28.5967C2.40071 28.3204 2.80587 27.9705 3.15578 27.547C3.50569 27.105 3.80955 26.6077 4.06738 26.0552C4.34362 25.4843 4.61987 24.8766 4.89611 24.232L14.8685 1H15.5867L25.3933 24.3978C25.6696 25.0424 25.9274 25.6409 26.1668 26.1934C26.4247 26.7274 26.7285 27.2063 27.0784 27.6298C27.4283 28.035 27.8519 28.3665 28.3491 28.6243C28.8464 28.8637 29.4817 29.0018 30.2552 29.0387V29.8398H19.095ZM14.0674 7.38122L9.15025 18.8729H18.874L14.0674 7.38122Z" fill="#00A3FF"></path></g><defs><clipPath id="clip0_2445_96223423q4rfg242rfedv23"><rect width="30" height="30" fill="white"></rect></clipPath></defs></svg>