<svg class="SVGInline-svg SVG-component__content-svg" viewBox="0 0 30 30" fill="none" xmlns="http://www.w3.org/2000/svg"><g clip-path="url(#clip0_5925_598)"><path d="M13.1437 0.0172062C11.96 0.0527181 11.088 0.135579 9.77007 0.332867C7.26057 0.707715 4.73133 1.41401 2.47041 2.36888C1.3143 2.8621 0.000364006 3.54077 -0.189033 3.75384L-0.279785 3.85643L-0.256111 5.15853C-0.224544 6.89467 -0.17325 7.47864 0.0871708 9.08851C0.300242 10.3946 0.533042 11.4205 0.892106 12.6397C1.49975 14.6875 2.58089 17.1418 3.71333 19.0318C5.18115 21.4861 6.84626 23.601 8.92568 25.641C10.4803 27.1719 11.8377 28.2925 13.3804 29.3263C14.1578 29.8472 14.4182 30.0011 14.5326 30.0011C14.8128 30.0011 17.7602 27.7638 19.236 26.4301C20.471 25.3135 22.073 23.6484 22.9331 22.583C25.5768 19.3159 27.4392 15.7687 28.469 12.0478C28.7492 11.0298 29.0727 9.47125 29.1438 8.79258C29.1595 8.66237 29.1951 8.35855 29.2227 8.1218C29.4121 6.63819 29.3884 4.05372 29.1872 3.73806C29.1122 3.62758 28.911 3.52104 27.9009 3.06333C25.7346 2.07689 23.091 1.17726 21.1339 0.762955C18.9006 0.285518 17.2355 0.0685011 15.5112 0.0290435C15.0456 0.021152 14.5208 0.00536892 14.3472 0.00142316C14.1735 -0.00252261 13.633 0.00142316 13.1437 0.0172062ZM16.8724 1.41401C19.0584 1.59946 21.4574 2.09268 23.6592 2.80291C25.1822 3.29219 27.7667 4.36149 27.9403 4.57062C27.9837 4.62191 28.0034 4.77974 28.0113 5.19799C28.0311 5.84904 27.964 7.51021 27.9009 7.96397C27.6957 9.49887 27.5773 10.1499 27.3445 11.1009C26.1253 16.0133 23.4777 20.4997 19.4688 24.4375C18.4389 25.4476 17.7247 26.079 16.5568 27.0062C15.6453 27.7283 14.5839 28.5017 14.505 28.5017C14.3866 28.5017 12.7373 27.3022 11.96 26.6511C10.0265 25.0254 8.61791 23.5892 7.18165 21.7741C5.31925 19.4185 3.76068 16.6999 2.77029 14.076C2.064 12.2017 1.53921 10.1105 1.28668 8.14153C1.17226 7.26557 1.10912 6.41723 1.0815 5.45447L1.05783 4.48381L1.72466 4.14447C4.20655 2.89367 7.36316 1.95458 10.4606 1.55605C11.1708 1.4653 12.3388 1.35877 12.8478 1.33904C13.6645 1.30747 16.1977 1.35482 16.8724 1.41401Z" fill="white"></path><path d="M14.7536 2.8029C14.6391 2.94495 14.5997 3.11067 14.5642 3.61967C14.5444 3.90377 14.5168 4.19576 14.505 4.26678C14.4892 4.3378 14.4655 4.72843 14.4497 5.13485C14.4063 6.12129 14.3629 6.20809 13.6566 6.64213C13.0885 6.98935 12.6071 7.41944 12.1573 7.98369C11.81 8.42167 11.6404 8.70576 11.2103 9.56594C10.8512 10.288 10.7368 10.6037 10.8157 10.6826C10.8788 10.7457 11.0722 10.5326 11.1905 10.2604C11.3918 9.80268 12.3782 8.57555 12.8951 8.13363C13.2502 7.8298 13.416 7.72721 13.8421 7.53782C14.7299 7.14324 15.1284 6.76839 15.3849 6.08183C15.4875 5.80563 15.5664 5.12301 15.5309 4.77973C15.4993 4.48774 15.523 4.37331 15.6177 4.3378C15.7321 4.2944 16.1819 4.63373 16.3358 4.87837C16.3792 4.9494 16.4502 5.14668 16.4976 5.31635C16.6988 6.07394 17.0461 6.53954 18.0364 7.38393C19.3898 8.54004 20.7945 10.067 21.8007 11.4757C22.2663 12.1228 22.3452 12.2846 22.3649 12.5923C22.3847 12.8251 22.3649 12.9159 22.2229 13.346C22.1361 13.6143 22.0335 13.8668 21.998 13.9102C21.9151 13.997 21.7178 14.0049 21.5205 13.9221C21.343 13.8471 20.909 13.8471 20.7669 13.9181C20.6249 13.9931 20.4355 14.2022 20.325 14.4034C20.2737 14.4981 20.2066 14.5731 20.175 14.5731C20.1435 14.5731 20.033 14.4902 19.9304 14.3837C19.7726 14.2298 19.7292 14.1509 19.6581 13.9023C19.4451 13.1526 19.3938 13.054 19.1294 12.9001C18.9203 12.7778 18.5928 12.7186 18.1311 12.7186C17.6142 12.7186 17.0105 12.6515 16.7028 12.5529C15.961 12.324 15.6216 11.7874 15.3415 10.3906C15.2862 10.1183 15.2231 9.84609 15.1994 9.7869C15.1166 9.56988 14.7891 9.60934 14.209 9.89738C13.2581 10.3748 12.394 11.3179 11.8219 12.5016C11.4312 13.3105 11.2695 13.8984 11.2261 14.6757C11.1866 15.3189 11.2695 15.5398 11.3681 15.0545C11.6561 13.6695 12.5913 12.3438 13.9368 11.4165C14.1656 11.2587 14.2564 11.2192 14.3866 11.2192C14.5721 11.2192 14.6194 11.2626 14.9548 11.7243C15.4954 12.4661 16.32 12.9672 17.3025 13.1526C17.8668 13.2592 18.072 13.3223 18.3482 13.4683C18.7822 13.7011 18.9597 14.0168 19.0466 14.723C19.0781 15.0111 19.2557 15.2636 19.5358 15.4175C19.7252 15.524 19.7962 15.5398 20.1316 15.5517C20.834 15.5832 21.2483 15.3702 21.4101 14.9046C21.4811 14.6915 21.5718 14.6915 21.7849 14.9085C21.9112 15.0387 21.9901 15.0861 22.073 15.0861C22.5346 15.0861 23.0397 14.1825 23.1146 13.2316C23.1423 12.8646 23.0554 12.3753 22.9095 12.0794C22.7516 11.7598 22.2466 11.089 21.4732 10.1736C21.0115 9.62907 20.83 9.43967 19.1215 7.6917C18.2969 6.85125 17.5906 6.10945 17.5511 6.05026C17.5077 5.97924 17.4643 5.80168 17.4406 5.56888C17.342 4.59033 16.9474 3.97085 15.9925 3.27245C15.302 2.77134 14.9074 2.6214 14.7536 2.8029Z" fill="white"></path><path d="M10.4408 6.35013C9.85292 6.44088 9.33208 6.58293 8.86254 6.77233C8.4285 6.94989 8.33381 6.99724 8.00236 7.19058C7.18559 7.67591 6.58583 8.31907 6.27806 9.0372C6.17153 9.28972 6.08078 9.68036 6.12418 9.68036C6.13602 9.68036 6.32936 9.49885 6.55427 9.27394C7.42234 8.42955 8.40483 7.87714 9.52543 7.60883C9.75823 7.55359 9.92 7.53386 9.93184 7.55754C9.94368 7.57726 9.91606 7.65223 9.86476 7.7272C9.69904 7.95211 8.79941 9.04903 8.35354 9.56198C7.85637 10.1302 7.67881 10.3906 7.55649 10.7299C7.5052 10.8641 7.39471 11.0929 7.30791 11.235C7.07511 11.6177 6.77128 12.2293 6.61345 12.6476C6.27806 13.5196 6.00186 14.9479 6.00186 15.7844C6.00186 16.0804 6.0137 16.1238 6.09656 16.2106C6.14785 16.2619 6.25834 16.3132 6.3412 16.329C7.33553 16.4907 8.42061 16.8459 9.19004 17.2641C10.1055 17.7613 11.2379 18.6727 11.8258 19.3869C12.4216 20.1129 12.5479 20.2747 12.8635 20.7285C13.3607 21.4387 13.7079 22.0464 14.2209 23.0959C14.7693 24.2205 14.8483 24.3902 15.1363 25.0688C15.2586 25.3608 15.3849 25.6252 15.4125 25.6567C15.4559 25.7001 15.4875 25.6765 15.6058 25.5186C15.8031 25.2424 16.2332 24.4059 16.4187 23.9403C16.8803 22.7566 17.0421 21.4506 16.8527 20.3536C16.7343 19.6592 16.6436 19.3435 16.2608 18.3058C15.8978 17.3154 15.665 16.5775 15.4954 15.8752C15.4086 15.5082 15.3691 15.2715 15.2902 14.6244C15.2073 13.9497 15.01 15.1965 15.0574 16.0922C15.0968 16.8774 15.1994 17.3667 15.5546 18.5268C15.9057 19.6789 16.0123 20.8232 15.8623 21.8333C15.7952 22.2634 15.7045 22.6185 15.6414 22.6816C15.5427 22.7842 15.452 22.6856 15.1718 22.1805C14.6234 21.1744 14.2722 20.6101 13.779 19.9393C12.0231 17.5522 9.97524 16.1711 7.46179 15.6779C6.75155 15.5398 6.73183 15.5161 6.73183 14.8098C6.73577 14.0365 6.86204 13.342 7.17375 12.4108C7.4539 11.5743 7.4973 11.4836 8.16808 10.4813C8.74022 9.62511 8.83492 9.5028 9.26106 9.08849C10.212 8.16913 11.3957 7.32079 12.5439 6.74471C12.7452 6.64606 12.9069 6.54347 12.9069 6.52375C12.9069 6.45667 12.757 6.41721 12.2322 6.35013C11.6443 6.27516 10.9301 6.27516 10.4408 6.35013Z" fill="white"></path><path d="M17.4722 8.20465C17.4169 8.26384 17.5629 8.79651 17.701 9.02931C17.851 9.28579 18.1745 9.56199 18.3284 9.56199C18.5415 9.55805 18.6993 9.36865 18.6283 9.19109C18.5731 9.04115 18.068 8.5282 17.7918 8.34275C17.5432 8.17703 17.5156 8.16519 17.4722 8.20465Z" fill="white"></path></g><defs><clipPath id="clip0_5925_598"><rect width="30" height="30" fill="white"></rect></clipPath></defs></svg>