<svg class="SVGInline-svg SVG-component__content-svg" viewBox="0 0 30 30" fill="none" xmlns="http://www.w3.org/2000/svg"><path fill-rule="evenodd" clip-rule="evenodd" d="M3.16875 26.8285C3.28124 26.9428 3.43875 27 3.64123 27H8.26489C8.80488 27 9.23237 26.7486 9.54737 26.2457L11.5048 22.92H20.3134L20.8533 26.1771C20.9434 26.7257 21.2922 27 21.8996 27H26.1857C26.4332 27 26.6357 26.9086 26.7933 26.7257C26.9508 26.5428 27.0183 26.2914 26.9958 25.9714L23.7221 3.99428C23.632 3.33143 23.2496 3 22.5746 3H17.1072C16.4548 3 15.9373 3.33143 15.5547 3.99428L3.10125 25.9714C3.03376 26.1085 3 26.2343 3 26.3486C3 26.5314 3.05625 26.6914 3.16875 26.8285ZM19.9759 17.7771H13.9685L18.7946 9.03427L19.9759 17.7771Z" fill="white"></path></svg>