<svg class="SVGInline-svg SVG-component__content-svg" viewBox="0 0 24 24"  xmlns="http://www.w3.org/2000/svg"><path d="M14.4279 3.62932C14.3879 3.58714 13.8389 2.97824 13.2079 2.27628C12.5769 1.57432 12.0335 1 12.0006 1C11.9675 1 11.8512 1.10592 11.7421 1.23546C11.6329 1.36493 10.9891 2.08454 10.3112 2.8345C9.63346 3.58447 8.63501 4.70415 8.0926 5.32268C7.55012 5.94121 6.806 6.81102 6.43896 7.25559C6.07185 7.70016 5.50686 8.41182 5.18339 8.83706C4.85986 9.2623 4.399 9.9107 4.15903 10.278C3.91914 10.6452 3.57851 11.2145 3.40202 11.5431C3.2256 11.8717 2.97145 12.4254 2.83727 12.7735C2.70302 13.1216 2.53903 13.6738 2.47282 14.0007C2.38468 14.4357 2.36268 14.7839 2.39073 15.3006C2.41723 15.789 2.48336 16.1646 2.60531 16.5201C2.70231 16.8025 2.91858 17.2766 3.08593 17.5736C3.2774 17.9132 3.5989 18.3236 3.95259 18.6798C4.31253 19.0423 4.67662 19.3306 4.96424 19.4808C5.21144 19.6099 5.60682 19.7756 5.84285 19.849C6.07895 19.9224 6.54094 20.0011 6.86954 20.0239C7.19813 20.0467 7.69148 20.0303 7.96581 19.9874C8.24022 19.9445 8.66721 19.8465 8.91469 19.7697C9.16225 19.6928 9.56444 19.5113 9.80855 19.3665C10.0526 19.2216 10.4762 18.8807 10.7498 18.609C11.0238 18.3371 11.2277 18.1782 11.2036 18.2556C11.1795 18.3329 10.8745 19.4018 10.5259 20.6309C10.1772 21.86 9.8919 22.8958 9.8919 22.9328C9.8919 22.9741 10.7065 23 12.0006 23C13.9629 23 14.1091 22.9915 14.1067 22.877C14.1053 22.8094 13.81 21.7197 13.4507 20.4555L12.7972 18.157L13.3699 18.6992C13.6849 18.9973 14.1306 19.3415 14.3603 19.4639C14.59 19.5863 15.0149 19.7529 15.3046 19.8338C15.5942 19.9149 16.1175 20.0005 16.4673 20.0242C16.8521 20.0502 17.2962 20.0337 17.5919 19.9823C17.8606 19.9356 18.286 19.8158 18.5373 19.716C18.7886 19.6161 19.1759 19.4117 19.398 19.2617C19.62 19.1116 19.9341 18.8555 20.0958 18.6925C20.2575 18.5295 20.5607 18.1345 20.7695 17.8146C20.9782 17.4948 21.2448 16.9729 21.362 16.6549C21.5314 16.1949 21.5824 15.9247 21.6118 15.3335C21.6336 14.8942 21.6142 14.3911 21.5644 14.1034C21.518 13.8357 21.4049 13.3919 21.313 13.1172C21.2211 12.8426 21.0582 12.4314 20.9512 12.2035C20.8441 11.9756 20.6054 11.5263 20.4207 11.205C20.2361 10.8836 19.9224 10.3776 19.7236 10.0804C19.5247 9.78313 19.1708 9.2869 18.9372 8.97764C18.7035 8.66837 18.1891 8.01554 17.7942 7.5269C17.3992 7.03819 16.9979 6.54794 16.9022 6.43744C16.8066 6.32688 16.2272 5.66709 15.6145 4.97125C15.0018 4.2754 14.4679 3.67156 14.4279 3.62932Z" fill="var(--icon-color, #76657E)"></path></svg>