<svg height="24" viewBox="0 0 24 24" width="24" >
    <path  d="m10.401.5h-.001c-.3448 0-.67544.136964-.91924.380761-.2438.243799-.38076.574459-.38076.919239 0 .89358-.3087 1.76349-.81285 2.67781-.42507.7709-.96838 1.53893-1.55103 2.36255-.11381.16089-.22912.3239-.34535.48946-1.39996 1.99424-2.89077 4.29818-2.89077 7.27018 0 2.3172 1.25521 4.1923 2.67063 5.4887.7108.651 1.47465 1.1687 2.17091 1.5369.67686.358 1.32541.5936 1.81856.652.0533.0092.1077.014.1363.0164.0213.0018.0402.0031.0537.0039l.0167.001.005.0003.0016.0001h.0006.0002.0001l.0257-.4993-.0257.4993c.0086.0005.0171.0007.0257.0007.3448 0 .6754-.137.9192-.3808s.3808-.5744.3808-.9192v-.0003c-.0001-.1931-.0432-.3837-.1262-.5581-.0769-.1615-.1862-.3052-.3209-.4223-.0106-.0103-.0217-.0201-.0333-.0295-.3152-.2557-.806-.7876-1.216-1.4448-.41312-.6621-.7036-1.3866-.7036-2.0341 0-1.1084.51226-1.8617 1.0401-2.3516.0382-.0355.0764-.0695.1144-.102-.0438.5428.0306 1.0337.2007 1.4891.2812.753.8066 1.3572 1.3461 1.9054.1605.1631.3228.3225.4844.4812.9607.9435 1.8946 1.8607 2.2464 3.355.0033.0142.0072.0282.0117.0418.0706.269.2257.5088.4432.6835.2303.1851.5167.2862.8122.2867h.002c.289-.0007.5802-.1276.7738-.2604.0007-.0004.0013-.0008.0019-.0012l.0098-.0064.0107-.0074.0074-.0054c.3415-.228 3.6952-2.5855 3.6952-7.4192 0-1.0255-.2532-2.3805-.5834-3.642-.3288-1.25588-.7474-2.46974-1.1092-3.23971-.0016-.00379-.0032-.00757-.0049-.01132-.0966-.23579-.2605-.43811-.4714-.58164-.2155-.1467-.4702-.22521-.7309-.22533h-.0007c-.3036.00029-.5975.10683-.8308.30115s-.3912.46416-.4463.76272c-.0001.00024-.0001.00047-.0002.00071-.0189.07606-.1071.40699-.3008.81509-.104.21888-.2347.4524-.3961.67802-.2055-1.60676-.8113-3.1745-1.5221-4.53537-.8758-1.67657-1.932-3.0792-2.6726-3.91311-.0306-.039792-.0634-.077779-.0984-.113771-.1208-.12469-.2654-.223923-.4252-.291841l-.1956.460152.1956-.460152c-.16-.068037-.3321-.103264-.506-.103598z"></path>
</svg>