<svg class="SVGInline-svg SVG-component__content-svg" viewBox="0 0 31 30" fill="none" xmlns="http://www.w3.org/2000/svg"><g clip-path="url(#clip0_550_2404fee51caa-ead5-11ec-8fea-0242ac120002)"><path d="M28.1913 19.3662C25.4955 20.9028 22.3225 22.3017 18.8448 23.424C13.9155 25.012 9.15695 25.7906 5.18896 25.8027C9.08032 29.5139 14.8526 31.0327 20.3445 29.2622C25.7254 27.526 29.4518 23.0813 30.4937 17.9437C29.7865 18.4182 29.0349 18.8834 28.2388 19.3393L28.1913 19.3662Z" fill="#E42314"></path><path d="M21.5998 21.0776C23.1638 20.5749 24.6989 19.9877 26.1984 19.3188V12.276H23.377V10.6263H30.1266C30.0999 10.5397 30.0781 10.4526 30.0485 10.366C29.3506 8.22286 28.1733 6.26403 26.6048 4.63599C23.6496 4.83522 20.3034 5.47814 16.8558 6.58929C13.4607 7.68409 10.4084 9.09168 7.91877 10.6263H13.0115V12.2509H8.37372V14.1504H12.4668V15.7245H8.37372V17.749H13.1755V19.3736H6.34778V11.6658C2.57575 14.3472 0.547375 17.287 1.30838 19.6099C2.61843 23.6108 11.7034 24.2682 21.5998 21.0776ZM14.6155 12.6696C15.0304 11.983 15.6301 11.4247 16.347 11.0575C17.0856 10.6703 17.9169 10.4767 18.841 10.4767C19.6132 10.4767 20.3142 10.6058 20.9441 10.864C21.5553 11.1088 22.0991 11.4943 22.5306 11.9887L21.221 13.1879C20.5915 12.5299 19.8316 12.2009 18.9414 12.2009C18.3788 12.2009 17.8792 12.3175 17.4427 12.5508C17.015 12.7762 16.6614 13.1188 16.4242 13.5378C16.1807 13.9625 16.0589 14.4498 16.0589 14.9997C16.0589 15.5416 16.1807 16.0247 16.4242 16.4492C16.6616 16.8681 17.0129 17.2124 17.4379 17.4429C17.8705 17.68 18.3638 17.7987 18.9177 17.799C19.4699 17.8074 20.0155 17.6786 20.5047 17.4242V14.8626H22.3686V18.4112C21.8676 18.7807 21.305 19.06 20.7064 19.236C20.0906 19.4259 19.4496 19.5232 18.8047 19.5247C17.8889 19.5247 17.066 19.3311 16.3359 18.9439C15.6241 18.5739 15.0293 18.016 14.617 17.3318C14.2011 16.6446 13.9932 15.8677 13.9932 15.0012C13.9932 14.1346 14.2011 13.3575 14.617 12.6696H14.6155Z" fill="#E42314"></path><path d="M30.5344 12.2759H28.2388V18.3394C29.096 17.896 29.9043 17.4374 30.6639 16.9635C30.8702 15.404 30.8265 13.8219 30.5344 12.2759Z" fill="#E42314"></path><path d="M25.9187 3.97533C22.0322 0.427234 16.3836 -0.997202 11.0032 0.737626C5.51225 2.50806 1.7407 7.10331 0.791504 12.3752C4.00867 10.0706 8.3186 7.92477 13.2479 6.33575C17.7761 4.87571 22.1593 4.10093 25.9187 3.97533Z" fill="#E42314"></path></g><defs><clipPath id="clip0_550_2404fee51caa-ead5-11ec-8fea-0242ac120002"><rect width="30" height="30" fill="white" transform="translate(0.791504)"></rect></clipPath></defs></svg>