<svg viewBox="0 0 24 24" fill="white" xmlns="http://www.w3.org/2000/svg"><path d="M21.9941 8.36163C21.9941 8.81238 21.9941 9.26308 21.9941 9.71383C21.8064 11.0638 21.292 12.247 20.4512 13.2634C18.7543 15.2117 17.029 17.1344 15.2754 19.0313C14.8848 19.4257 14.4941 19.8201 14.1035 20.2145C13.0276 21.0727 11.8687 21.2277 10.627 20.6793C10.4446 20.5666 10.2624 20.454 10.0801 20.3413C7.7168 18.0665 5.48372 15.6508 3.38086 13.0943C2.60885 12.1144 2.14661 10.9876 1.99414 9.71383C1.99414 9.29127 1.99414 8.86871 1.99414 8.44614C2.30192 6.06956 3.4738 4.40045 5.50977 3.43877C7.80164 2.60861 9.82637 3.08046 11.584 4.85436C11.7142 5.02338 11.8444 5.19241 11.9746 5.36143C13.4819 3.39977 15.4025 2.66028 17.7363 3.14298C19.607 3.70179 20.9155 4.94835 21.6621 6.88266C21.8171 7.37009 21.9278 7.86305 21.9941 8.36163ZM16.0957 5.40369C17.7251 5.35769 18.8775 6.1324 19.5527 7.72779C19.9313 8.90183 19.8141 10.0146 19.2012 11.066C18.9668 11.3759 18.7324 11.6858 18.498 11.9957C16.6025 14.1448 14.6689 16.2505 12.6973 18.313C12.1736 18.6882 11.6787 18.6459 11.2129 18.1862C9.72434 16.6887 8.25949 15.1604 6.81836 13.6014C6.15285 12.8506 5.51482 12.0759 4.9043 11.2773C3.99404 9.7972 3.99404 8.31823 4.9043 6.8404C5.9791 5.51973 7.28769 5.14644 8.83008 5.72061C9.73969 6.16937 10.3842 6.89479 10.7637 7.89681C11.3217 8.61196 11.9923 8.75985 12.7754 8.3405C12.9107 8.23642 13.0344 8.11671 13.1465 7.98132C13.5366 6.92547 14.2072 6.15784 15.1582 5.67836C15.4693 5.55911 15.7818 5.46758 16.0957 5.40369Z" ></path><path d="M16.0957 5.40369C17.7251 5.35769 18.8775 6.1324 19.5527 7.72779C19.9313 8.90183 19.8141 10.0146 19.2012 11.066L18.498 11.9957C16.6025 14.1448 14.6689 16.2505 12.6973 18.313C12.1736 18.6882 11.6787 18.6459 11.2129 18.1862C9.72434 16.6887 8.25949 15.1604 6.81836 13.6014C6.15285 12.8506 5.51482 12.0759 4.9043 11.2773C3.99404 9.7972 3.99404 8.31823 4.9043 6.8404C5.9791 5.51973 7.28769 5.14644 8.83008 5.72061C9.73969 6.16937 10.3842 6.89479 10.7637 7.89681C11.3217 8.61196 11.9923 8.75985 12.7754 8.3405C12.9107 8.23642 13.0344 8.11671 13.1465 7.98132C13.5366 6.92547 14.2072 6.15784 15.1582 5.67836C15.4693 5.55911 15.7818 5.46758 16.0957 5.40369Z" ></path></svg>