<svg class="SVGInline-svg SVG-component__content-svg" viewBox="0 0 30 30" fill="none" xmlns="http://www.w3.org/2000/svg"><g clip-path="url(#clip0_2445_956)"><path d="M15.4163 13.8665C12.8612 13.8665 10.7943 11.7995 10.7943 9.24449C10.7943 6.68947 12.8612 4.62248 15.4163 4.62248C17.9713 4.62248 20.0383 6.68947 20.0383 9.24449C20.0096 11.7995 17.9426 13.8665 15.4163 13.8665ZM24.8038 -0.143066H20.0383V1.09138C18.6603 0.316263 17.11 -0.114358 15.4163 -0.114358C10.2488 -0.114358 6.02871 4.10574 6.02871 9.2732C6.02871 14.4407 10.2201 18.6321 15.4163 18.6321C20.6124 18.6321 24.8038 14.412 24.8038 9.24449C24.8038 9.21578 24.8038 9.21579 24.8038 9.18708V-0.143066Z" fill="url(#paint0_linear_2445_956)"></path><path d="M10.7656 29.857H6C6 24.7182 10.1914 20.5269 15.3301 20.5269H24.8038V25.2924H15.3301C12.8038 25.2637 10.7656 27.3307 10.7656 29.857Z" fill="url(#paint1_linear_2445_956)"></path></g><defs><linearGradient id="paint0_linear_2445_956" x1="15.4113" y1="-8.45459" x2="15.4113" y2="19.2019" gradientUnits="userSpaceOnUse"><stop offset="7.00827e-07" stop-color="#B0FF0B"></stop><stop offset="0.1124" stop-color="#A7FA0C"></stop><stop offset="0.2958" stop-color="#8FED0E"></stop><stop offset="0.5274" stop-color="#67D811"></stop><stop offset="0.7953" stop-color="#30BC15"></stop><stop offset="1" stop-color="#02A319"></stop></linearGradient><linearGradient id="paint1_linear_2445_956" x1="15.4024" y1="-8.78797" x2="15.4024" y2="19.1942" gradientUnits="userSpaceOnUse"><stop offset="7.00827e-07" stop-color="#B0FF0B"></stop><stop offset="0.1124" stop-color="#A7FA0C"></stop><stop offset="0.2958" stop-color="#8FED0E"></stop><stop offset="0.5274" stop-color="#67D811"></stop><stop offset="0.7953" stop-color="#30BC15"></stop><stop offset="1" stop-color="#02A319"></stop></linearGradient><clipPath id="clip0_2445_956"><rect width="30" height="30" fill="white"></rect></clipPath></defs></svg>