<svg viewBox="0 0 30 30" xmlns="http://www.w3.org/2000/svg"><g clip-path="url(#clip0_2823_600)"><path d="M11.2375 0.325359L3.08745 3.74681C2.46665 4.00742 1.91938 4.37767 1.4647 4.82763C1.41163 5.033 1.55406 5.46472 1.6968 5.54232C1.96809 5.68566 1.89642 5.67113 2.19363 5.76028C6.29114 7.00577 10.4548 8.10348 14.5147 9.45896C15.3083 9.72169 16.1072 9.87996 16.9417 9.86032C18.1556 9.82537 19.2874 9.49862 20.3628 8.95431C22.9052 7.66299 25.4489 6.37481 27.9824 5.06712C28.295 4.90846 28.3922 4.64612 28.3412 4.33901C28.3065 4.1287 28.2218 3.88008 28.0682 3.71773C27.9578 3.67602 27.844 3.64023 27.727 3.6108L13.8819 0.126666C13.0022 -0.0947069 12.0715 -0.0247766 11.2375 0.325359Z" fill="url(#paint0_linear_2823_600)"></path><path d="M0.00756604 8.57497L0.771265 22.2299C0.85232 23.6791 1.82564 24.9383 3.23725 25.42L15.6947 29.6713C15.7318 29.6839 15.7689 29.6962 15.8062 29.7081C16.0005 29.7293 16.2017 29.724 16.4145 29.676C17.4487 29.4483 17.9661 29.0524 18.0686 28.0769L18.1404 21.0704C18.13 18.7838 18.0443 16.483 18.135 14.1976C18.1759 13.1675 17.8791 12.2764 17.1466 11.5337C16.5473 10.9297 15.7999 10.5582 14.9856 10.3108C10.7405 9.03835 6.49014 7.76553 2.24465 6.49781C1.77567 6.36002 1.17808 6.26376 0.698289 6.41888C0.53287 6.46739 0.349893 6.62834 0.23955 6.80378C0.162357 7.03963 0.103035 7.28207 0.0627341 7.52928C0.00713599 7.87033 -0.0122606 8.22047 0.00756604 8.57497Z" fill="url(#paint1_linear_2823_600)"></path><path d="M21.4236 28.72L28.0395 23.558C28.9682 22.8334 29.5236 21.751 29.5597 20.5955L29.9986 6.54951C30.0143 6.04657 29.8979 5.56428 29.6767 5.13798C29.5598 5.15689 29.4326 5.20895 29.3397 5.26505C26.6719 6.895 23.8456 8.30225 21.1001 9.80573C19.8198 10.5087 19.1132 11.5486 19.0772 12.9947L18.7853 27.9826C18.8262 28.7355 19.1695 29.0524 19.9425 29.1215C20.2054 29.1474 20.525 29.1642 20.8296 29.1283C21.0345 29.0049 21.2329 28.8687 21.4236 28.72Z" fill="url(#paint2_linear_2823_600)"></path><path d="M28.3412 4.33901C28.3922 4.64612 28.295 4.90846 27.9824 5.06712C25.4489 6.37481 22.9052 7.66299 20.3628 8.95431C19.2874 9.49862 18.1556 9.82537 16.9417 9.86032C16.1072 9.87996 15.3083 9.72169 14.5147 9.45896C10.4548 8.10348 6.29114 7.00577 2.19363 5.76028C1.89642 5.67113 1.96809 5.68566 1.6968 5.54232C1.55406 5.46472 1.41163 5.033 1.4647 4.82763C0.90303 5.38348 0.482663 6.06098 0.23955 6.80378C0.349893 6.62834 0.53287 6.46739 0.698289 6.41888C1.17808 6.26376 1.77567 6.36002 2.24465 6.49781C6.49014 7.76553 10.7405 9.03835 14.9856 10.3108C15.7999 10.5582 16.5473 10.9297 17.1466 11.5337C17.8791 12.2764 18.1759 13.1675 18.135 14.1976C18.0443 16.483 18.13 18.7838 18.1404 21.0704L18.0686 28.0769C17.9661 29.0524 17.4487 29.4483 16.4145 29.676C16.2017 29.724 16.0005 29.7293 15.8062 29.7081C17.4958 30.2488 19.3355 30.0281 20.8296 29.1283C20.525 29.1642 20.2054 29.1474 19.9425 29.1215C19.1695 29.0524 18.8262 28.7355 18.7853 27.9826L19.0772 12.9947C19.1132 11.5486 19.8198 10.5087 21.1001 9.80573C23.8456 8.30225 26.6719 6.895 29.3397 5.26505C29.4326 5.20895 29.5598 5.15689 29.6767 5.13798C29.3452 4.49914 28.7784 3.98606 28.0682 3.71773C28.2218 3.88008 28.3065 4.1287 28.3412 4.33901Z" fill="url(#paint3_linear_2823_600)"></path><path d="M0.00753552 8.57509L0.771234 22.23C0.85229 23.6793 1.82561 24.9384 3.23722 25.4201L15.6946 29.6714C15.7317 29.684 15.7689 29.6963 15.8062 29.7082C16.0005 29.7295 16.2016 29.7242 16.4145 29.6762C17.4486 29.4484 17.9661 29.0525 18.0685 28.077L18.1403 21.0705C18.1299 18.7839 18.0442 16.4831 18.135 14.1977C18.1759 13.1676 17.8791 12.2765 17.1466 11.5338C16.5473 10.9298 15.7998 10.5583 14.9856 10.3109C10.7405 9.03847 6.49011 7.76565 2.24462 6.49794C1.77564 6.36015 1.17805 6.26388 0.698259 6.419C0.532839 6.46752 0.349863 6.62846 0.239519 6.8039C0.162327 7.03975 0.103005 7.28219 0.0627035 7.5294C0.00710547 7.87045 -0.0122912 8.22059 0.00753552 8.57509Z" fill="url(#paint4_linear_2823_600)"></path><path d="M21.4236 28.7201L28.0395 23.5581C28.9682 22.8335 29.5236 21.7511 29.5597 20.5956L29.9986 6.54963C30.0143 6.04669 29.8979 5.5644 29.6767 5.13811C29.5597 5.15701 29.4326 5.20907 29.3397 5.26517C26.6718 6.89512 23.8456 8.30237 21.1001 9.80586C19.8198 10.5088 19.1132 11.5488 19.0772 12.9948L18.7852 27.9827C18.8261 28.7356 19.1695 29.0525 19.9425 29.1216C20.2054 29.1475 20.525 29.1644 20.8295 29.1284C21.0345 29.005 21.2329 28.8688 21.4236 28.7201Z" fill="url(#paint5_linear_2823_600)"></path><path d="M11.2374 0.325481L3.08742 3.74693C2.46662 4.00755 1.91935 4.37779 1.46467 4.82775C1.41159 5.03312 1.55403 5.46484 1.69677 5.54244C1.96806 5.68578 1.89639 5.67125 2.1936 5.7604C6.29111 7.0059 10.4548 8.1036 14.5146 9.45908C15.3083 9.72181 16.1072 9.88008 16.9417 9.86045C18.1556 9.82549 19.2873 9.49875 20.3628 8.95443C22.9052 7.66311 25.4489 6.37494 27.9824 5.06724C28.295 4.90858 28.3922 4.64624 28.3411 4.33913C28.3065 4.12882 28.2218 3.8802 28.0682 3.71785C27.9578 3.67615 27.844 3.64035 27.727 3.61092L13.8819 0.126788C13.0022 -0.0945848 12.0715 -0.0246545 11.2374 0.325481Z" fill="url(#paint6_linear_2823_600)"></path><path d="M8.5087 5.5475C8.89365 5.47641 10.4983 5.07244 10.0862 4.42352C9.81494 4.00723 9.37439 3.86389 8.92413 3.73507C7.85366 3.43034 6.31312 3.43297 5.32366 3.99231C4.67864 4.35911 4.55555 4.7699 5.29816 5.18619C5.95897 5.55221 6.69064 5.64175 7.44378 5.66139C7.54529 5.65146 7.6476 5.64316 7.75013 5.63483C8.00463 5.61418 8.26047 5.59341 8.5087 5.5475Z" fill="white"></path><path d="M16.2571 5.49802C16.7403 5.4003 18.1019 4.93197 17.5115 4.28489C17.2301 3.97267 16.8511 3.83915 16.4567 3.73036C15.7603 3.53714 15.0432 3.53714 14.3366 3.59173C13.7078 3.64165 12.6499 3.8119 12.3598 4.44826C12.184 4.8365 12.7197 5.12229 13.0259 5.27023C14.0249 5.73773 15.1931 5.71347 16.2571 5.49802Z" fill="white"></path><path d="M24.2662 3.84425C24.6526 3.98059 25.3895 4.38719 24.9882 4.83431C24.4681 5.42065 23.588 5.5261 22.8372 5.57882C22.4108 5.60876 19.388 5.38629 19.975 4.39367C20.2001 3.99781 20.6253 3.84425 21.0399 3.74528C22.1206 3.48294 23.2062 3.47273 24.2662 3.84425Z" fill="white"></path><path d="M4.80131 4.51063C4.84891 4.3313 5.03346 4.15737 5.32366 3.99234C6.31312 3.433 7.85366 3.43037 8.92413 3.73511C9.37439 3.86392 9.81494 4.00726 10.0862 4.42355C10.1115 4.46338 10.1292 4.50228 10.1401 4.54025C10.1673 4.44694 10.1542 4.34658 10.0862 4.23956C9.81494 3.82327 9.37439 3.67993 8.92413 3.55111C7.85366 3.24638 6.31312 3.24901 5.32366 3.80835C4.93514 4.02929 4.73598 4.26619 4.80131 4.51063Z" fill="#E50012"></path><path d="M12.3379 4.50841C12.3433 4.48866 12.3506 4.46862 12.3598 4.4483C12.6499 3.81194 13.7078 3.64169 14.3366 3.59176C15.0431 3.53717 15.7603 3.53717 16.4567 3.7304C16.8511 3.83918 17.2301 3.97271 17.5115 4.28492C17.5828 4.36311 17.6257 4.4387 17.645 4.51133C17.6789 4.38521 17.6454 4.24767 17.5115 4.10093C17.2301 3.78871 16.8511 3.65519 16.4567 3.5464C15.7603 3.35318 15.0431 3.35318 14.3366 3.40777C13.7078 3.45769 12.6499 3.62794 12.3598 4.2643C12.3206 4.3509 12.3168 4.4324 12.3379 4.50841Z" fill="#E50012"></path><path d="M25.091 4.47596C25.2011 4.10061 24.6016 3.77864 24.2662 3.66029C23.2062 3.28877 22.1206 3.29898 21.0399 3.56132C20.6253 3.66029 20.2001 3.81385 19.975 4.20971C19.9022 4.33281 19.8849 4.44407 19.9113 4.54446C19.9231 4.4963 19.944 4.44608 19.975 4.39371C20.2001 3.99784 20.6253 3.84428 21.0399 3.74532C22.1206 3.48298 23.2062 3.47277 24.2662 3.84428C24.5453 3.94274 25.0071 4.18214 25.091 4.47596Z" fill="#E50012"></path><path d="M4.87422 4.84404C4.96218 4.71801 5.11583 4.59525 5.32366 4.47706C6.31312 3.91773 7.85366 3.9151 8.92413 4.21983C9.36081 4.34476 9.78834 4.48335 10.0612 4.87133C10.1652 4.73901 10.1915 4.58926 10.0862 4.42352C9.81494 4.00723 9.37439 3.86389 8.92413 3.73507C7.85366 3.43034 6.31312 3.43297 5.32366 3.99231C4.85642 4.25801 4.66305 4.5468 4.87422 4.84404Z" fill="#E3E3E3"></path><path d="M12.411 4.83776C12.7585 4.27933 13.7404 4.12382 14.3366 4.07649C15.0432 4.0219 15.7603 4.0219 16.4567 4.21512C16.8511 4.3239 17.2301 4.45743 17.5115 4.76965C17.5345 4.79483 17.5545 4.81974 17.5717 4.84437C17.6895 4.68032 17.7002 4.49174 17.5115 4.28489C17.2301 3.97267 16.8511 3.83915 16.4567 3.73036C15.7603 3.53714 15.0432 3.53714 14.3366 3.59173C13.7078 3.64165 12.6499 3.8119 12.3598 4.44826C12.2943 4.59293 12.3276 4.72337 12.411 4.83776Z" fill="#E3E3E3"></path><path d="M25.0115 4.80681C25.3594 4.3706 24.6447 3.97779 24.2662 3.84425C23.2062 3.47273 22.1206 3.48294 21.0399 3.74528C20.6253 3.84425 20.2001 3.99781 19.975 4.39367C19.8664 4.57731 19.8813 4.73459 19.9805 4.86878C20.207 4.48006 20.6286 4.3282 21.0399 4.23004C22.1206 3.9677 23.2062 3.95749 24.2662 4.32901C24.4947 4.40962 24.8457 4.58472 25.0115 4.80681Z" fill="#E3E3E3"></path><path fill-rule="evenodd" clip-rule="evenodd" d="M25.6384 19.2682C25.7972 20.2288 25.951 21.1399 26.1098 22.0511C26.13 22.1649 26.1762 22.3283 26.2531 22.3582C26.3402 22.3927 26.4936 22.3185 26.5908 22.2541L26.6571 22.2061C26.9628 21.9849 27.2664 21.7653 27.5436 21.5115C27.571 21.4863 27.5999 21.4618 27.6288 21.4372C27.794 21.2968 27.9629 21.1534 27.9019 20.8627C27.7928 20.3506 27.6989 19.8347 27.6052 19.3197C27.5449 18.9882 27.4847 18.6572 27.4205 18.3276C27.3236 17.8259 27.2239 17.3246 27.1243 16.8235C26.987 16.1331 26.8496 15.4417 26.7192 14.7476C26.4734 13.4453 26.2276 12.143 25.9968 10.8407C25.9203 10.415 25.6332 10.2218 25.2032 10.3604C25.1349 10.3824 25.0715 10.4189 25.0088 10.4551C24.9447 10.4921 24.8814 10.5287 24.814 10.5489C24.4606 10.6475 24.1791 10.8407 23.9281 11.0984C23.6639 11.3668 23.6064 11.6939 23.5465 12.0345C23.5391 12.077 23.5316 12.1198 23.5236 12.1626C23.4197 12.7274 23.3015 13.2901 23.1832 13.8532C23.1148 14.179 23.0463 14.505 22.9806 14.8316C22.8145 15.6515 22.6531 16.4711 22.4916 17.2907C22.4142 17.6841 22.3367 18.0775 22.2587 18.471C22.1511 19.0125 22.0458 19.5542 21.9406 20.0953L21.919 20.2065C21.8111 20.7611 21.7032 21.3152 21.593 21.868C21.432 22.6715 21.2655 23.476 21.0995 24.278C21.0334 24.5973 20.9674 24.9163 20.9018 25.2349L20.8828 25.3233C20.8269 25.5818 20.7703 25.8441 20.7431 26.1063C20.7325 26.2006 20.7994 26.3392 20.8759 26.3887C20.9374 26.428 21.0962 26.3985 21.1678 26.349C21.3365 26.2348 21.4976 26.1116 21.6585 25.9886C21.7907 25.8875 21.9228 25.7864 22.059 25.6904C22.4226 25.4328 22.6838 25.1261 22.7247 24.6654C22.745 24.4209 22.7915 24.1767 22.838 23.9323C22.8499 23.8697 22.8618 23.8071 22.8733 23.7445C23.0208 22.922 23.171 22.1001 23.324 21.2786C23.3286 21.2544 23.3329 21.23 23.3373 21.2057C23.371 21.0159 23.4047 20.8258 23.5953 20.6942C23.9624 20.4423 24.3241 20.1827 24.6862 19.9228C24.8293 19.8201 24.9725 19.7173 25.1161 19.615C25.2944 19.5054 25.4686 19.3897 25.6384 19.2682ZM25.0035 16.8867C25.2084 16.7332 25.3056 16.54 25.2493 16.2627C25.1608 15.8309 25.0944 15.3927 25.0277 14.9532C25.0096 14.8335 24.9914 14.7138 24.9728 14.594C24.9196 14.2621 24.8708 13.9256 24.8226 13.5932L24.814 13.5344C24.7946 13.5306 24.7722 13.5269 24.749 13.5231L24.727 13.5195C24.7188 13.5417 24.7096 13.5639 24.7003 13.5862C24.6805 13.6337 24.6605 13.6819 24.65 13.7324L24.5592 14.226C24.3746 15.2291 24.1904 16.2294 24.0099 17.2331C24.0033 17.2717 24.0161 17.3163 24.0286 17.3604C24.0355 17.3845 24.0423 17.4084 24.0459 17.4311C24.0645 17.4283 24.0843 17.4267 24.1044 17.4251C24.1562 17.421 24.2102 17.4167 24.2508 17.3918L24.3445 17.3321C24.569 17.1893 24.792 17.0474 25.0035 16.8867Z" fill="url(#paint7_linear_2823_600)"></path><path d="M27.9007 21.0898C28.0338 20.9687 28.1424 20.8287 28.0916 20.5867C27.9825 20.0748 27.8887 19.5591 27.795 19.0443C27.7347 18.7128 27.6744 18.3812 27.6102 18.0516C27.5138 17.5521 27.4146 17.0535 27.3155 16.5547L27.3141 16.548L27.3139 16.547C27.1766 15.8565 27.0393 15.1657 26.9089 14.4716C26.6631 13.1693 26.4173 11.867 26.1865 10.5647C26.11 10.139 25.8229 9.94579 25.3929 10.0844C25.3246 10.1064 25.2612 10.1429 25.1985 10.1791C25.1345 10.2161 25.0711 10.2527 25.0038 10.2729C24.6503 10.3715 24.3689 10.5647 24.1178 10.8224C24.0277 10.914 23.9616 11.0124 23.9113 11.1158C23.9168 11.11 23.9224 11.1042 23.9281 11.0984C24.1792 10.8407 24.4606 10.6475 24.8141 10.5489C24.8814 10.5287 24.9447 10.4921 25.0088 10.4551C25.0715 10.419 25.1349 10.3824 25.2032 10.3604C25.6332 10.2218 25.9203 10.415 25.9968 10.8407C26.2276 12.143 26.4734 13.4453 26.7192 14.7475C26.8496 15.4417 26.9869 16.1325 27.1242 16.823L27.1244 16.824L27.1256 16.83C27.2248 17.329 27.324 17.8279 27.4205 18.3276C27.4847 18.6571 27.5449 18.9882 27.6052 19.3197C27.6989 19.8345 27.7928 20.3508 27.9019 20.8627C27.9203 20.9505 27.9178 21.0249 27.9007 21.0898Z" fill="#B11220"></path><path d="M23.5769 20.7074C23.4025 20.8383 23.3699 21.0222 23.3373 21.2056C23.333 21.23 23.3286 21.2543 23.324 21.2786C23.171 22.1001 23.0208 22.922 22.8733 23.7445C22.8618 23.8071 22.8499 23.8697 22.838 23.9323C22.7915 24.1767 22.745 24.4209 22.7247 24.6654C22.71 24.8307 22.667 24.9762 22.6011 25.1067C22.774 24.9116 22.8885 24.6815 22.9144 24.3894C22.9347 24.1449 22.9812 23.9007 23.0277 23.6563C23.0396 23.5938 23.0515 23.5311 23.063 23.4685C23.2105 22.646 23.3607 21.8241 23.5137 21.0026C23.5183 20.9784 23.5227 20.954 23.527 20.9297C23.5403 20.8544 23.5537 20.7791 23.5769 20.7074Z" fill="#B11220"></path><path d="M25.2422 16.5715C25.2267 16.5848 25.2103 16.5979 25.1932 16.6107C24.9818 16.7714 24.7587 16.9133 24.5343 17.0561L24.4405 17.1158C24.4 17.1407 24.346 17.145 24.2941 17.1491C24.274 17.1507 24.2542 17.1523 24.2356 17.1551C24.2321 17.1324 24.2252 17.1085 24.2184 17.0844C24.2058 17.0403 24.1931 16.9957 24.1996 16.9571C24.3801 15.9535 24.5642 14.9534 24.7488 13.9505L24.819 13.5689L24.814 13.5344C24.7946 13.5306 24.7722 13.5269 24.749 13.5231L24.727 13.5195C24.7188 13.5417 24.7096 13.5639 24.7003 13.5862C24.6806 13.6337 24.6605 13.6819 24.6501 13.7324L24.5592 14.226L24.559 14.2274C24.3744 15.23 24.1904 16.2298 24.0099 17.2331C24.0034 17.2717 24.0161 17.3163 24.0286 17.3604C24.0355 17.3845 24.0424 17.4084 24.0459 17.4311C24.0645 17.4283 24.0843 17.4267 24.1043 17.4251C24.1562 17.421 24.2103 17.4167 24.2508 17.3918L24.3445 17.3321C24.5689 17.1893 24.792 17.0474 25.0035 16.8867C25.1222 16.7978 25.2047 16.6956 25.2422 16.5715Z" fill="#B11220"></path><path d="M6.43514 23.8284C7.05465 23.8284 7.31582 23.6058 7.29517 23.1899C7.26885 22.6771 7.23557 22.1662 7.20234 21.656C7.17779 21.2791 7.15326 20.9026 7.13159 20.526C7.11786 20.2878 7.10396 20.0491 7.0901 19.8111C7.021 18.6245 6.95205 17.4404 6.90079 16.2528C6.86158 15.3994 6.83158 14.5476 6.80157 13.6957C6.77673 12.9904 6.75189 12.2851 6.72182 11.5786C6.70643 11.1623 6.52219 10.8308 6.07639 10.6922C5.85556 10.6235 5.6347 10.5542 5.41374 10.4848C4.78954 10.2888 4.16449 10.0926 3.53679 9.90988C3.11649 9.78578 2.84034 10.0088 2.85532 10.4346C2.86808 10.8447 2.89058 11.2548 2.91308 11.6649C2.92699 11.9184 2.9409 12.1719 2.9525 12.4253C2.97137 12.7867 2.98861 13.1469 3.00586 13.5072C3.02191 13.8426 3.03797 14.1781 3.05534 14.5146L3.20921 17.6391L3.20964 17.6475C3.24513 18.3331 3.2806 19.0184 3.31125 19.704L3.41896 22.2638C3.42908 22.5859 3.70037 22.9322 4.01296 23.0363C4.2306 23.1082 4.44692 23.1812 4.66325 23.2543C4.87957 23.3273 5.09589 23.4004 5.31353 23.4722C5.55942 23.5524 5.80895 23.6308 6.03229 23.701C6.18115 23.7478 6.31838 23.7909 6.43514 23.8284Z" fill="url(#paint8_linear_2823_600)"></path><path d="M11.0694 24.8684C11.3103 25.3538 11.6532 25.7151 12.1703 25.9033C13.1077 26.2449 14.0446 26.5815 14.9921 26.8984C15.1148 26.9381 15.3456 26.9181 15.4019 26.8391C15.4736 26.7449 15.4582 26.5367 15.3966 26.4181C15.0017 25.6298 14.5925 24.848 14.1839 24.0673C14.0999 23.9067 14.0159 23.7463 13.9321 23.5858C13.7781 23.2899 13.6238 22.994 13.4696 22.698C12.8443 21.4983 12.2183 20.2973 11.6022 19.0899C11.3613 18.6147 11.3512 18.1493 11.7557 17.7185C11.9871 17.4695 12.204 17.2065 12.4209 16.9434C12.5447 16.7933 12.6685 16.6431 12.7951 16.4955C13.0314 16.2206 13.2683 15.9457 13.5052 15.6708L13.5059 15.67C13.9516 15.1528 14.3972 14.6358 14.8383 14.1188C15.1201 13.7916 15.0739 13.6035 14.6694 13.4205C14.6396 13.4052 14.6088 13.392 14.5771 13.3808C14.0282 13.2119 13.4786 13.0453 12.9283 12.8809C12.452 12.7353 11.9741 12.595 11.4945 12.4599C11.3843 12.4305 11.2686 12.4175 11.1535 12.4046C11.1134 12.4001 11.0734 12.3956 11.0337 12.3904C11.0337 12.3904 10.9106 12.3904 10.726 12.6378C10.726 12.6727 10.6904 12.7175 10.66 12.732C10.3575 13.0561 10.2745 13.1621 10.1984 13.2592C10.1559 13.3134 10.1156 13.3648 10.0405 13.45C9.88608 13.6254 9.75679 13.8216 9.6273 14.018C9.53742 14.1544 9.44743 14.2909 9.34889 14.4208C9.09015 14.7648 8.82645 15.1065 8.56275 15.4481C8.29905 15.7898 8.03535 16.1315 7.77661 16.4755C7.52557 16.8125 7.36725 17.1887 7.41827 17.6144L7.67417 18.1642C7.79993 18.4338 7.93474 18.7003 8.06929 18.9663C8.11019 19.0472 8.15106 19.128 8.19165 19.2089C8.55445 19.9235 8.91871 20.6375 9.28303 21.3516L9.28356 21.3527C9.88068 22.5231 10.478 23.694 11.0694 24.8684Z" fill="white"></path><path d="M11.0694 24.8684C11.3103 25.3538 11.6532 25.7151 12.1703 25.9033C13.1077 26.2449 14.0446 26.5815 14.9921 26.8984C15.1148 26.9381 15.3456 26.9181 15.4019 26.8391C15.4736 26.7449 15.4582 26.5367 15.3966 26.4181C15.0017 25.6298 14.5925 24.848 14.1839 24.0673C14.0999 23.9067 14.0159 23.7463 13.9321 23.5858C13.7781 23.2899 13.6238 22.994 13.4696 22.698C12.8443 21.4983 12.2183 20.2973 11.6022 19.0899C11.3613 18.6147 11.3512 18.1493 11.7557 17.7185C11.9871 17.4695 12.204 17.2065 12.4209 16.9434C12.5447 16.7933 12.6685 16.6431 12.7951 16.4955C13.0314 16.2206 13.2683 15.9457 13.5052 15.6708L13.5059 15.67C13.9516 15.1528 14.3972 14.6358 14.8383 14.1188C15.1201 13.7916 15.0739 13.6035 14.6694 13.4205C14.6396 13.4052 14.6088 13.392 14.5771 13.3808C14.0282 13.2119 13.4786 13.0453 12.9283 12.8809C12.452 12.7353 11.9741 12.595 11.4945 12.4599C11.3843 12.4305 11.2686 12.4175 11.1535 12.4046C11.1134 12.4001 11.0734 12.3956 11.0337 12.3904C11.0337 12.3904 10.9106 12.3904 10.726 12.6378C10.726 12.6727 10.6904 12.7175 10.66 12.732C10.3575 13.0561 10.2745 13.1621 10.1984 13.2592C10.1559 13.3134 10.1156 13.3648 10.0405 13.45C9.88608 13.6254 9.75679 13.8216 9.6273 14.018C9.53742 14.1544 9.44743 14.2909 9.34889 14.4208C9.09015 14.7648 8.82645 15.1065 8.56275 15.4481C8.29905 15.7898 8.03535 16.1315 7.77661 16.4755C7.52557 16.8125 7.36725 17.1887 7.41827 17.6144L7.67417 18.1642C7.79993 18.4338 7.93474 18.7003 8.06929 18.9663C8.11019 19.0472 8.15106 19.128 8.19165 19.2089C8.55445 19.9235 8.91871 20.6375 9.28303 21.3516L9.28356 21.3527C9.88068 22.5231 10.478 23.694 11.0694 24.8684Z" fill="url(#paint9_linear_2823_600)"></path><path d="M3.5625 22.6762C3.47728 22.5488 3.4234 22.4041 3.419 22.2639L3.31129 19.7041C3.28064 19.0186 3.24518 18.3334 3.2097 17.6478L3.20925 17.6392L3.05539 14.5147C3.03801 14.1782 3.02196 13.8428 3.0059 13.5074C2.98866 13.1471 2.97141 12.7868 2.95254 12.4254C2.94094 12.172 2.92703 11.9185 2.91312 11.665C2.89063 11.255 2.86812 10.8448 2.85536 10.4347C2.84038 10.0089 3.11653 9.78588 3.53683 9.90998C4.16453 10.0927 4.78959 10.2889 5.41378 10.4849C5.63472 10.5543 5.85563 10.6236 6.07643 10.6923C6.08857 10.6961 6.10051 10.7 6.11226 10.704C6.00962 10.532 5.84456 10.3996 5.60217 10.3243C5.3814 10.2556 5.16059 10.1863 4.93967 10.1169C4.31548 9.92096 3.69028 9.72469 3.06257 9.54196C2.64227 9.41786 2.36612 9.64093 2.3811 10.0666C2.39387 10.4768 2.41637 10.8869 2.43887 11.2969C2.45277 11.5504 2.46668 11.804 2.47829 12.0574C2.49716 12.4188 2.5144 12.779 2.53165 13.1393C2.5477 13.4747 2.56376 13.8102 2.58113 14.1467L2.735 17.2712L2.73544 17.2797C2.77092 17.9653 2.80639 18.6505 2.83703 19.3361L2.94474 21.8959C2.95487 22.2179 3.22615 22.5643 3.53875 22.6684C3.54666 22.671 3.55458 22.6736 3.5625 22.6762Z" fill="#E50012"></path><path d="M11.4429 25.4223C11.0633 25.2184 10.7944 24.9018 10.5951 24.5005C10.004 23.3264 9.40691 22.1561 8.81001 20.986L8.80881 20.9837C8.44449 20.2695 8.08023 19.5555 7.71743 18.8409C7.67684 18.7601 7.63597 18.6792 7.59507 18.5984C7.46053 18.3324 7.32571 18.0658 7.19995 17.7962L6.94791 17.2547C6.94396 17.1765 6.94007 17.0982 6.93624 17.0199C6.95343 16.6857 7.09683 16.3834 7.30239 16.1075C7.56103 15.7636 7.82463 15.4221 8.08823 15.0806C8.35187 14.739 8.61598 14.3967 8.87467 14.0528C8.97321 13.9229 9.06319 13.7864 9.15307 13.6501C9.28256 13.4536 9.41186 13.2575 9.56626 13.082C9.64137 12.9969 9.68169 12.9454 9.72415 12.8913C9.80024 12.7942 9.88331 12.6882 10.1858 12.3641C10.2161 12.3495 10.2518 12.3048 10.2518 12.2698C10.4364 12.0224 10.5595 12.0224 10.5595 12.0224C10.5991 12.0276 10.639 12.0321 10.679 12.0366C10.7941 12.0495 10.9101 12.0625 11.0203 12.0919C11.4998 12.227 11.9778 12.3673 12.4541 12.5129C13.0044 12.6773 13.554 12.8439 14.1029 13.0129C14.1346 13.024 14.1654 13.0372 14.1952 13.0525C14.4108 13.1501 14.5246 13.2491 14.5412 13.3698C14.0043 13.2047 13.4667 13.0417 12.9283 12.8809C12.4521 12.7354 11.9741 12.595 11.4945 12.4599C11.3844 12.4305 11.2686 12.4175 11.1536 12.4046C11.1136 12.4001 11.0733 12.3956 11.0338 12.3904C11.0338 12.3904 10.9107 12.3904 10.726 12.6378C10.726 12.6728 10.6904 12.7176 10.66 12.7321C10.3576 13.0562 10.2745 13.1621 10.1985 13.2592C10.156 13.3134 10.1157 13.3649 10.0405 13.45C9.88612 13.6255 9.75684 13.8216 9.62735 14.0181C9.53747 14.1544 9.44747 14.291 9.34892 14.4208C9.09024 14.7648 8.8266 15.1064 8.56296 15.448C8.29938 15.7895 8.03526 16.1317 7.77665 16.4756C7.5256 16.8125 7.36729 17.1887 7.41831 17.6145L7.67421 18.1643C7.79996 18.4338 7.93477 18.7003 8.06931 18.9664C8.11021 19.0472 8.1511 19.1281 8.19168 19.2089C8.55425 19.9231 8.91827 20.6366 9.28236 21.3503L9.28359 21.3527C9.88072 22.5232 10.478 23.694 11.0694 24.8685C11.1731 25.0774 11.2956 25.2633 11.4429 25.4223Z" fill="#E50012"></path></g><defs><linearGradient id="paint0_linear_2823_600" x1="0.336006" y1="6.17884" x2="17.8462" y2="11.3857" gradientUnits="userSpaceOnUse"><stop stop-color="#ED9567"></stop><stop offset="1" stop-color="#BE000B"></stop></linearGradient><linearGradient id="paint1_linear_2823_600" x1="0.336006" y1="6.17884" x2="17.8462" y2="11.3857" gradientUnits="userSpaceOnUse"><stop stop-color="#ED9567"></stop><stop offset="1" stop-color="#BE000B"></stop></linearGradient><linearGradient id="paint2_linear_2823_600" x1="0.336006" y1="6.17884" x2="17.8462" y2="11.3857" gradientUnits="userSpaceOnUse"><stop stop-color="#ED9567"></stop><stop offset="1" stop-color="#BE000B"></stop></linearGradient><linearGradient id="paint3_linear_2823_600" x1="0.336006" y1="6.17884" x2="17.8462" y2="11.3857" gradientUnits="userSpaceOnUse"><stop stop-color="#ED9567"></stop><stop offset="1" stop-color="#BE000B"></stop></linearGradient><linearGradient id="paint4_linear_2823_600" x1="0.336037" y1="6.17896" x2="16.7721" y2="29.8377" gradientUnits="userSpaceOnUse"><stop stop-color="#EFA26F"></stop><stop offset="0.144582" stop-color="#ED9769"></stop><stop offset="0.275876" stop-color="#E87A57"></stop><stop offset="0.442663" stop-color="#DD3D33"></stop><stop offset="1" stop-color="#B20009"></stop></linearGradient><linearGradient id="paint5_linear_2823_600" x1="16.1762" y1="13.2167" x2="23.8817" y2="26.4421" gradientUnits="userSpaceOnUse"><stop stop-color="#AA0007"></stop><stop offset="0.453385" stop-color="#7F0000"></stop><stop offset="0.716646" stop-color="#7D0000"></stop><stop offset="1" stop-color="#7D0000"></stop></linearGradient><linearGradient id="paint6_linear_2823_600" x1="1.1897" y1="4.10903" x2="28.8388" y2="3.91344" gradientUnits="userSpaceOnUse"><stop stop-color="#ED9869"></stop><stop offset="0.408411" stop-color="#E15541"></stop><stop offset="0.683916" stop-color="#D92826"></stop><stop offset="1" stop-color="#C7000C"></stop></linearGradient><linearGradient id="paint7_linear_2823_600" x1="24.0015" y1="17.7246" x2="27.8666" y2="16.4124" gradientUnits="userSpaceOnUse"><stop stop-color="white"></stop><stop offset="1" stop-color="#B2B2B3"></stop></linearGradient><linearGradient id="paint8_linear_2823_600" x1="2.18568" y1="12.9867" x2="5.21799" y2="13.3775" gradientUnits="userSpaceOnUse"><stop stop-color="#C3C3C4"></stop><stop offset="1" stop-color="white"></stop></linearGradient><linearGradient id="paint9_linear_2823_600" x1="8.54067" y1="14.7807" x2="10.1623" y2="16.3083" gradientUnits="userSpaceOnUse"><stop stop-color="#C3C3C4"></stop><stop offset="1" stop-color="white"></stop></linearGradient><clipPath id="clip0_2823_600"><rect width="30" height="30" fill="white"></rect></clipPath></defs></svg>