<svg class="SVGInline-svg SVG-component__content-svg" viewBox="0 0 30 30" fill="none" xmlns="http://www.w3.org/2000/svg"><path d="M23.3661 10.0829C22.4454 7.34966 20.3667 5.41463 17.2738 4.41098C16.1264 4.03871 15.5345 4 11.0035 4H6V8.64106V13.2821H8.16649H10.333L10.3883 10.7641L10.4436 8.24608L13.2085 8.25358C15.8264 8.26089 16.0284 8.28992 17.0092 8.79965C18.2694 9.45453 19.0276 10.5196 19.3364 12.0683L19.5586 13.1834L21.6664 13.2395L23.7743 13.2956V12.2951C23.7743 11.7448 23.5906 10.7495 23.3661 10.0829Z" fill="#F5EE24"></path><path d="M10.3448 26.1191V20.2931V14.4671H8.17241H6V20.2931V26.1191H8.17241H10.3448Z" fill="#F5EE24"></path><path d="M23.7743 26.33V20.4973V14.6646H21.5989H19.4235L19.4759 20.4412L19.5282 26.2178L21.6512 26.2739L23.7743 26.33Z" fill="#F5EE24"></path></svg>