<svg class="SVGInline-svg SVG-component__content-svg" viewBox="0 0 30 30" fill="none" xmlns="http://www.w3.org/2000/svg"><path d="M26.6832 10.1291C26.6648 10.0846 26.654 10.0412 26.6355 9.99565C25.5257 7.27486 21.3089 6.45039 16.4477 7.69362L15.6504 7.19676C18.0435 6.16399 20.4269 5.62482 22.4241 5.77236C25.4031 5.99801 26.86 7.69361 26.6832 10.1291ZM22.3612 15.844C19.2444 19.8124 13.6119 22.5592 9.77919 22.275C5.95295 21.9853 5.37255 18.5366 8.49039 14.5683C8.55223 14.4869 8.61949 14.4066 8.68459 14.3253L8.69444 19.3004C8.67383 20.5653 9.8921 21.1587 10.7676 20.6564L22.2268 13.6679C23.1229 13.0875 23.0285 11.7889 22.1844 11.2888L17.5381 8.61466C18.7943 8.23713 19.9996 8.05922 21.0703 8.13841C24.8998 8.42806 25.4759 11.8757 22.3613 15.844M7.78642 24.41C4.26936 24.1453 2.86665 21.827 3.78226 18.6701C3.77672 19.1962 3.85929 19.7007 4.05456 20.1693C5.42906 23.5486 11.5997 24.0064 17.8353 21.201C17.9633 21.1435 18.0903 21.0806 18.2161 21.0242C14.7153 23.2839 10.8153 24.6345 7.78642 24.41M11.8383 6.74331L19.5309 11.5915C20.0994 11.9321 20.1677 12.8195 19.5624 13.2133L11.7917 17.9519C11.1982 18.2936 10.3662 17.8868 10.3824 17.0222L10.3456 7.61336C10.3792 6.82793 11.156 6.35385 11.8383 6.74331M29.6449 8.48882C28.0329 4.52698 21.3372 3.65476 14.0915 6.21824L10.8761 4.2037C9.87475 3.63198 8.73133 4.32845 8.67601 5.48706L8.67818 8.75895C2.43382 12.5006 -1.18739 17.8868 0.354178 21.6784C2.14091 26.0579 10.1438 26.6589 18.2302 23.016C26.3188 19.3752 31.4284 12.8705 29.6449 8.48882Z" fill="#3E4C8E"></path><path d="M26.6832 10.1291C26.6648 10.0846 26.654 10.0412 26.6355 9.99565C25.5257 7.27486 21.3089 6.45039 16.4477 7.69362L15.6504 7.19676C18.0435 6.16399 20.4269 5.62482 22.4241 5.77236C25.4031 5.99801 26.86 7.69361 26.6832 10.1291ZM22.3612 15.844C19.2444 19.8124 13.6119 22.5592 9.77919 22.275C5.95295 21.9853 5.37255 18.5366 8.49039 14.5683C8.55223 14.4869 8.61949 14.4066 8.68459 14.3253L8.69444 19.3004C8.67383 20.5653 9.8921 21.1587 10.7676 20.6564L22.2268 13.6679C23.1229 13.0875 23.0285 11.7889 22.1844 11.2888L17.5381 8.61466C18.7943 8.23713 19.9996 8.05922 21.0703 8.13841C24.8998 8.42806 25.4759 11.8757 22.3613 15.844M7.78642 24.41C4.26936 24.1453 2.86665 21.827 3.78226 18.6701C3.77672 19.1962 3.85929 19.7007 4.05456 20.1693C5.42906 23.5486 11.5997 24.0064 17.8353 21.201C17.9633 21.1435 18.0903 21.0806 18.2161 21.0242C14.7153 23.2839 10.8153 24.6345 7.78642 24.41M11.8383 6.74331L19.5309 11.5915C20.0994 11.9321 20.1677 12.8195 19.5624 13.2133L11.7917 17.9519C11.1982 18.2936 10.3662 17.8868 10.3824 17.0222L10.3456 7.61336C10.3792 6.82793 11.156 6.35385 11.8383 6.74331M29.6449 8.48882C28.0329 4.52698 21.3372 3.65476 14.0915 6.21824L10.8761 4.2037C9.87475 3.63198 8.73133 4.32845 8.67601 5.48706L8.67818 8.75895C2.43382 12.5006 -1.18739 17.8868 0.354178 21.6784C2.14091 26.0579 10.1438 26.6589 18.2302 23.016C26.3188 19.3752 31.4284 12.8705 29.6449 8.48882Z" fill="url(#paint0_linear_2445_947)"></path><path d="M26.6832 10.1291C26.6648 10.0846 26.654 10.0412 26.6355 9.99565C25.5257 7.27486 21.3089 6.45039 16.4477 7.69362L15.6504 7.19676C18.0435 6.16399 20.4269 5.62482 22.4241 5.77236C25.4031 5.99801 26.86 7.69361 26.6832 10.1291ZM22.3612 15.844C19.2444 19.8124 13.6119 22.5592 9.77919 22.275C5.95295 21.9853 5.37255 18.5366 8.49039 14.5683C8.55223 14.4869 8.61949 14.4066 8.68459 14.3253L8.69444 19.3004C8.67383 20.5653 9.8921 21.1587 10.7676 20.6564L22.2268 13.6679C23.1229 13.0875 23.0285 11.7889 22.1844 11.2888L17.5381 8.61466C18.7943 8.23713 19.9996 8.05922 21.0703 8.13841C24.8998 8.42806 25.4759 11.8757 22.3613 15.844M7.78642 24.41C4.26936 24.1453 2.86665 21.827 3.78226 18.6701C3.77672 19.1962 3.85929 19.7007 4.05456 20.1693C5.42906 23.5486 11.5997 24.0064 17.8353 21.201C17.9633 21.1435 18.0903 21.0806 18.2161 21.0242C14.7153 23.2839 10.8153 24.6345 7.78642 24.41M11.8383 6.74331L19.5309 11.5915C20.0994 11.9321 20.1677 12.8195 19.5624 13.2133L11.7917 17.9519C11.1982 18.2936 10.3662 17.8868 10.3824 17.0222L10.3456 7.61336C10.3792 6.82793 11.156 6.35385 11.8383 6.74331M29.6449 8.48882C28.0329 4.52698 21.3372 3.65476 14.0915 6.21824L10.8761 4.2037C9.87475 3.63198 8.73133 4.32845 8.67601 5.48706L8.67818 8.75895C2.43382 12.5006 -1.18739 17.8868 0.354178 21.6784C2.14091 26.0579 10.1438 26.6589 18.2302 23.016C26.3188 19.3752 31.4284 12.8705 29.6449 8.48882Z" fill="url(#paint1_linear_2445_947)"></path><defs><linearGradient id="paint0_linear_2445_947" x1="0.0708006" y1="6.50672" x2="29.8604" y2="8.60578" gradientUnits="userSpaceOnUse"><stop stop-color="#00CAB2"></stop><stop offset="1" stop-color="#0085FF"></stop></linearGradient><linearGradient id="paint1_linear_2445_947" x1="1.82718" y1="5.93741" x2="30.0249" y2="8.11226" gradientUnits="userSpaceOnUse"><stop stop-color="#00D1FF"></stop><stop offset="1" stop-color="#00A3FF"></stop></linearGradient></defs></svg>