<svg class="SVGInline-svg SVG-component__content-svg" xmlns="http://www.w3.org/2000/svg" viewBox="0 0 26 27" fill="none"><path d="M17.364 0.00139313C16.8931 0.608153 16.3061 1.11216 15.6116 1.49816C14.8064 1.94663 13.8066 2.17295 12.6383 2.17295C11.4702 2.17295 10.4689 1.94524 9.66516 1.49676C8.97067 1.11078 8.38237 0.60676 7.91281 0H1.09375C1.65156 1.36487 2.40557 2.58255 3.34046 3.62667C4.42035 4.83325 5.76266 5.79269 7.33282 6.47995C8.89875 7.16591 10.6844 7.51293 12.6398 7.51293C14.6172 7.51293 16.4084 7.16591 17.9647 6.47995C19.5224 5.79269 20.8591 4.83325 21.9376 3.62806C22.8725 2.58394 23.6265 1.36487 24.1845 0.00139313H17.364Z" fill="#FFA502"></path><path d="M6.48356 26.1451C6.31084 25.3121 6.22245 24.4511 6.22245 23.5779C6.22245 22.5101 6.34264 21.4604 6.58012 20.4608C6.81351 19.4749 7.19191 18.5849 7.70144 17.8171C8.2028 17.0605 8.86695 16.4494 9.67479 15.9996C10.48 15.5511 11.4797 15.3235 12.6479 15.3235C13.8149 15.3235 14.816 15.5511 15.6212 15.9981C16.4291 16.4481 17.0932 17.0605 17.5946 17.8171C18.1041 18.5864 18.4825 19.4763 18.7159 20.4608C18.9534 21.4604 19.0736 22.5087 19.0736 23.5779C19.0736 24.4498 18.9852 25.3121 18.8125 26.1451H25.1C25.2283 25.3148 25.2947 24.4582 25.2947 23.5779C25.2947 21.6687 25.0047 19.8706 24.4344 18.2323C23.8612 16.5883 23.0258 15.1332 21.9486 13.9071C20.8701 12.677 19.5321 11.6995 17.9743 11.0011C16.418 10.3028 14.6255 9.94873 12.6466 9.94873C10.6912 9.94873 8.90561 10.3028 7.33836 10.9997C5.7682 11.6982 4.42589 12.677 3.346 13.9071C2.2702 15.1332 1.43334 16.5883 0.860353 18.2323C0.289995 19.8706 0 21.6687 0 23.5779C0 24.4582 0.0662244 25.3148 0.194737 26.1451H6.48356Z" fill="#FF6348"></path></svg>