<svg class="SVGInline-svg SVG-component__content-svg" viewBox="0 0 30 30" fill="none" xmlns="http://www.w3.org/2000/svg"><g clip-path="url(#clip0_2798_163)"><path d="M0.100464 -0.09375V0.0542739C0.100464 1.04998 0.139937 2.04914 0.217403 3.02265C0.293882 4.00947 0.414768 5.00617 0.5697 5.992C0.731046 6.99955 0.933345 7.99921 1.17068 8.96284C1.41738 9.96842 1.70504 10.9676 2.02971 11.9322C2.33859 12.8524 2.68891 13.7736 3.07032 14.6706L3.11275 14.7693C3.13199 14.8142 3.15074 14.8591 3.16999 14.9021C3.60518 15.9042 4.09267 16.9033 4.61963 17.8729C5.05334 18.6722 5.53146 19.4785 6.04116 20.2684C6.16648 20.4615 6.2923 20.6528 6.41862 20.8423C7.04821 21.7797 7.73159 22.7039 8.45 23.5866L8.63305 23.8121C8.75838 23.9601 8.88371 24.1116 9.01052 24.2606C9.46051 24.7886 9.93665 25.317 10.4266 25.8312C10.7335 26.1514 11.0498 26.4726 11.368 26.7829C11.5694 26.9803 11.7726 27.1722 11.9799 27.3662C12.1871 27.5601 12.3914 27.7456 12.5991 27.9301C13.3081 28.5632 14.0517 29.1765 14.8061 29.7513C14.8466 29.7834 14.8876 29.815 14.9305 29.8451L15.0173 29.9062L15.1032 29.8431C15.1431 29.8135 15.1831 29.7824 15.2211 29.7523C15.9736 29.1795 16.7166 28.5681 17.4301 27.9311C17.6546 27.7303 17.8791 27.5245 18.0967 27.3203C18.2868 27.144 18.475 26.9649 18.6612 26.7829C18.9878 26.4632 19.3026 26.1415 19.5987 25.8312C20.0965 25.3096 20.5894 24.7624 21.0641 24.2029L21.0893 24.1728C21.1909 24.0524 21.2921 23.9325 21.3942 23.8096L21.5768 23.5861C22.2888 22.7093 22.9721 21.7852 23.6076 20.8403C23.7517 20.6252 23.894 20.4084 24.0344 20.19C24.5131 19.4449 24.9749 18.8119 25.4066 18.0189C25.491 17.864 25.5739 17.7125 25.6563 17.5625C26.0831 16.7844 26.4862 16.0487 26.8568 15.1942L26.9461 14.9884H10.1661L10.282 15.205C10.7755 16.1257 11.3182 16.9068 11.8901 17.7342L12.1397 18.0949H21.6626C21.3991 18.5207 21.1199 18.8025 20.8337 19.2258C20.5051 19.7104 20.1562 20.1959 19.7975 20.6691C19.5636 20.9794 19.3071 21.3051 19.0347 21.6366C18.6676 22.0871 18.2827 22.5347 17.891 22.9689C17.7128 23.1662 17.5155 23.3769 17.288 23.6157C17.2175 23.6897 17.1474 23.7638 17.0744 23.8373C16.4078 24.5236 15.716 25.1789 15.0178 25.7858C14.3108 25.172 13.62 24.5162 12.9563 23.8338C12.8843 23.7623 12.8147 23.6888 12.7442 23.6152C12.5557 23.4179 12.3712 23.2205 12.1881 23.0231C11.7741 22.5682 11.3735 22.1024 10.9965 21.6381C10.7449 21.3337 10.4957 21.0179 10.2342 20.6725C9.89669 20.2284 9.56314 19.7671 9.24291 19.2989C8.88716 18.7773 8.54621 18.2489 8.22994 17.7278C7.65005 16.7727 7.11847 15.7891 6.6372 14.7807C6.52223 14.5448 6.41171 14.307 6.29822 14.0539C5.96912 13.3246 5.66468 12.5786 5.39281 11.8365C5.04101 10.8802 4.7272 9.88997 4.46026 8.89179C4.20319 7.93112 3.98412 6.93985 3.80994 5.94513C3.65304 5.02689 3.52771 4.09039 3.44284 3.15735H26.5839C26.499 4.09138 26.3757 5.02738 26.2168 5.94217C26.0491 6.89939 25.8403 7.85316 25.5956 8.77979H7.63537L7.69113 8.96877C7.98274 9.95559 8.31579 10.7732 8.70164 11.719L8.76924 11.8848H27.963L28.0247 11.7018C28.3424 10.7574 28.6168 9.94178 28.8556 8.96284C29.0934 7.99872 29.2957 6.99906 29.4571 5.99151C29.6145 5.00469 29.7329 4.00651 29.8094 3.02265C29.8868 2.04865 29.9263 1.04899 29.9263 0.053287V-0.09375H0.100464Z" fill="white"></path></g><defs><clipPath id="clip0_2798_163"><rect width="30" height="30" fill="white"></rect></clipPath></defs></svg>