<svg class="SVGInline-svg SVG-component__content-svg" viewBox="0 0 30 30" fill="none" xmlns="http://www.w3.org/2000/svg"><ellipse cx="14.9862" cy="14.9998" rx="14.9862" ry="15" fill="url(#paint0_linear_2915_21292)"></ellipse><path fill-rule="evenodd" clip-rule="evenodd" d="M4.99416 26.182C5.09513 26.3409 5.7177 26.81 5.90183 26.9505C6.12213 26.8435 6.59783 26.8721 6.88455 26.8489C7.76035 26.7765 8.84675 26.5949 9.68044 26.402C10.8257 26.1361 11.938 25.7729 12.9466 25.347C15.1275 24.4261 16.7539 23.3224 18.3122 22.0562C17.904 22.8047 16.0481 25.468 15.4396 26.4333C15.2571 26.7219 14.5282 27.7017 14.5352 27.9763C14.7733 27.9033 15.0222 27.5504 15.2765 27.2975C15.5244 27.0505 15.7301 26.8413 15.9779 26.5949L18.8235 23.7137C19.0363 23.5019 20.0622 22.4031 20.2485 22.3248L20.5908 28.8961C20.9175 28.7524 21.2679 28.6454 21.5573 28.4638L22.0352 22.3345L25.3149 25.8156C25.5152 25.6453 25.7657 25.4383 25.891 25.1978L23.5044 21.3882L27.9196 22.4647L28.4428 21.546C28.2063 21.3838 25.7825 20.497 25.1696 20.2667L24.0924 19.8257L29.6712 17.8482C29.7506 17.7217 29.8332 17.1532 29.8332 16.9316L23.5562 18.2595C23.7522 17.8066 24.344 17.0326 24.6502 16.5749L27.3564 12.4728C27.4941 12.2675 27.8348 11.8546 27.8392 11.5973C27.6156 11.6211 27.621 11.6768 27.472 11.8319C26.8446 12.4864 23.323 16.1285 23.0719 16.2609C23.1702 15.9409 23.5281 15.3648 23.6842 15.0103C25.3467 11.2276 25.715 8.68157 25.5065 4.35902C25.4115 4.19796 25.2652 4.08393 25.1216 3.94017C24.9293 3.74723 24.8942 3.67643 24.6475 3.54834C25.0649 7.37583 24.7814 10.3651 23.3618 13.8791C23.1815 14.3266 22.2679 16.3214 22.0276 16.4576C22.0201 15.4507 21.9272 14.3877 21.8737 13.3835L21.4882 5.8912C21.4752 5.65124 21.4612 5.37075 21.4499 5.11349C21.4218 4.49305 21.472 4.58817 21.3014 4.52872C21.175 4.74653 20.3932 15.9647 20.3052 17.2575L18.8829 15.8058C18.7641 15.6712 18.6524 15.5351 18.5249 15.407L15.3953 12.1086C15.0697 11.8075 14.8656 11.4871 14.6453 11.4395C14.6524 11.8567 18.5444 17.5493 18.817 18.2092C18.0233 18.0903 14.2657 17.1234 13.1345 16.8543C12.1713 16.6257 11.2474 16.3965 10.3052 16.1723C9.93746 16.0847 7.74632 15.4594 7.54384 15.6004C7.61349 15.7464 7.61511 15.7172 7.82947 15.7939L18.2036 19.7625C18.0217 19.8944 9.41046 22.9312 8.08379 23.3949C7.61835 23.5575 7.5352 23.504 7.47472 23.7078C7.6826 23.7856 11.9601 22.8069 12.5487 22.6739C13.4034 22.481 14.2641 22.3048 15.1264 22.1183C15.5481 22.027 15.9796 21.9373 16.4126 21.8438C16.7625 21.7681 17.4639 21.5449 17.6594 21.6735C17.4493 21.7681 17.2452 21.9589 17.0228 22.128C13.5865 24.7444 9.46284 26.1793 4.99416 26.182Z" fill="#FEFEFE"></path><path fill-rule="evenodd" clip-rule="evenodd" d="M5.90183 26.95C6.1189 27.0797 6.33542 27.2694 6.57084 27.4256C6.82732 27.5964 7.01846 27.7266 7.29222 27.8926C7.44719 27.9861 7.51414 28.0169 7.67613 28.1028C7.83704 28.1893 7.88239 28.2336 8.05302 28.3201C9.37807 28.9929 10.8711 29.5307 12.4704 29.7917C14.4223 30.11 16.9542 30.0522 18.8241 29.4972C19.3359 29.3453 20.1767 29.1145 20.5908 28.8956L20.2485 22.3243C20.0622 22.4026 19.0363 23.5014 18.8235 23.7132L15.978 26.5944C15.7301 26.8408 15.5244 27.05 15.2765 27.297C15.0222 27.5499 14.7733 27.9028 14.5352 27.9758C14.5282 27.7012 15.2571 26.7214 15.4396 26.4328C16.0481 25.4675 17.904 22.8042 18.3122 22.0557C16.7539 23.3219 15.1275 24.4256 12.9466 25.3465C11.938 25.7724 10.8257 26.1355 9.68044 26.4015C8.84675 26.5944 7.76036 26.776 6.88455 26.8484C6.59783 26.8716 6.12214 26.843 5.90183 26.95Z" fill="#005CA6"></path><path fill-rule="evenodd" clip-rule="evenodd" d="M29.8332 16.9307C29.9957 15.2818 30.1043 14.823 29.8429 12.9957C29.6485 11.6418 29.3737 10.675 28.9612 9.55461C28.3148 7.80138 27.4509 6.58861 26.3154 5.1764C26.1188 4.93212 25.7565 4.51326 25.5065 4.35815C25.715 8.6807 25.3467 11.2268 23.6842 15.0094C23.5281 15.3639 23.1701 15.9401 23.0719 16.26C23.3229 16.1276 26.8445 12.4855 27.472 11.831C27.621 11.6759 27.6156 11.6202 27.8391 11.5964C27.8348 11.8537 27.4941 12.2666 27.3564 12.472L24.6502 16.574C24.344 17.0318 23.7522 17.8057 23.5562 18.2586L29.8332 16.9307Z" fill="#005CA6"></path><path fill-rule="evenodd" clip-rule="evenodd" d="M21.5573 28.4635C22.4579 28.0511 23.9131 27.121 24.6631 26.4233C24.7743 26.3201 24.7938 26.3239 24.9034 26.232C25.0427 26.1152 25.1912 25.9558 25.3148 25.8153L22.0351 22.3342L21.5573 28.4635Z" fill="#005CA6"></path><path fill-rule="evenodd" clip-rule="evenodd" d="M28.4428 21.5459C28.7705 21.0665 29.6561 18.6291 29.6712 17.8481L24.0924 19.8257L25.1696 20.2667C25.7824 20.4969 28.2063 21.3838 28.4428 21.5459Z" fill="#005CA6"></path><path fill-rule="evenodd" clip-rule="evenodd" d="M25.891 25.1974C25.9023 25.193 25.9185 25.1725 25.9223 25.1817C25.9666 25.2833 26.9941 23.9467 26.9941 23.9467C27.1593 23.7262 27.9131 22.7361 27.9196 22.4643L23.5044 21.3877L25.891 25.1974Z" fill="#005CA6"></path><defs><linearGradient id="paint0_linear_2915_21292" x1="2.42583" y1="6.63645" x2="19.122" y2="19.9218" gradientUnits="userSpaceOnUse"><stop stop-color="#FFED00"></stop><stop offset="1" stop-color="#F15922"></stop></linearGradient></defs></svg>