<svg class="SVGInline-svg SVG-component__content-svg" viewBox="0 0 30 30" fill="none" xmlns="http://www.w3.org/2000/svg"><g clip-path="url(#clip0_2461_245)"><path d="M17.1429 12.472C18.2841 12.472 19.2092 11.5469 19.2092 10.4057C19.2092 9.26448 18.2841 8.33936 17.1429 8.33936C16.0017 8.33936 15.0765 9.26448 15.0765 10.4057C15.0765 11.5469 16.0017 12.472 17.1429 12.472Z" fill="white"></path><path d="M30 10.4057C30 11.5536 29.0816 12.472 27.9337 12.472C26.7857 12.472 25.8674 11.5536 25.8674 10.4057C25.8674 9.25772 26.7857 8.33936 27.9337 8.33936C29.0816 8.33936 30 9.25772 30 10.4057Z" fill="white"></path><path d="M17.1428 22.5741C18.284 22.5741 19.2092 21.6489 19.2092 20.5077C19.2092 19.3665 18.284 18.4414 17.1428 18.4414C16.0016 18.4414 15.0765 19.3665 15.0765 20.5077C15.0765 21.6489 16.0016 22.5741 17.1428 22.5741Z" fill="white"></path><path d="M30 20.5077C30 21.6557 29.0816 22.5741 27.9337 22.5741C26.7857 22.5741 25.8674 21.6557 25.8674 20.5077C25.8674 19.3598 26.7857 18.4414 27.9337 18.4414C29.0816 18.4414 30 19.3598 30 20.5077Z" fill="white"></path><path d="M24.6429 15.4565C24.6429 16.6044 23.7245 17.5228 22.5765 17.5228C21.4286 17.5228 20.5102 16.6044 20.5102 15.4565C20.5102 14.3085 21.4286 13.3901 22.5765 13.3901C23.7245 13.3901 24.6429 14.3085 24.6429 15.4565Z" fill="white"></path><path d="M12.6276 22.1149L9.33675 16.6047C11.0204 16.222 12.1684 15.0741 12.1684 12.5485C12.2449 9.18119 9.94899 8.41589 7.11736 8.33936H6.42858H0.306123C0.153061 8.33936 0 8.49242 0 8.64548V22.1914C0 22.3445 0.153061 22.4975 0.306123 22.4975H2.75511C2.90817 22.4975 3.06123 22.3445 3.06123 22.1914V16.9108H6.50511L9.56634 22.2679C9.64287 22.421 9.79593 22.4975 9.94899 22.4975H12.551C12.7041 22.4975 12.7806 22.421 12.7806 22.2679C12.6276 22.1914 12.6276 22.1149 12.6276 22.1149ZM7.19389 14.3853L6.42858 14.4618H2.9847V10.8649H6.50511H7.19389C8.80103 10.8649 9.26021 11.6302 9.26021 12.6251C9.18368 13.62 8.7245 14.3853 7.19389 14.3853Z" fill="white"></path></g><defs><clipPath id="clip0_2461_245"><rect width="30" height="30" fill="white"></rect></clipPath></defs></svg>