<?xml version="1.0" encoding="UTF-8"?>
<svg version="1.1" xmlns="http://www.w3.org/2000/svg" width="30" height="30">
<path d="M0 0 C9.80946278 0.47465142 18.01379506 4.01379506 25 11 C25.71644325 12.64588314 26.39197995 14.31105541 27 16 C20.52378569 23.2902636 13.81493196 28.65778263 3.875 29.8125 C2.59625 29.874375 1.3175 29.93625 0 30 C-2.07092029 24.8720069 -2.30381069 20.43487949 -2.25 15 C-2.25773438 14.21882812 -2.26546875 13.43765625 -2.2734375 12.6328125 C-2.25794398 8.03123632 -1.74828303 4.3290818 0 0 Z " fill="#C52030" transform="translate(3,0)"/>
<path d="M0 0 C3.96457386 0.44050821 6.87560017 1.50983774 10 4 C10.48828125 7.13671875 10.48828125 7.13671875 10.3125 10.6875 C10.26738281 11.86699219 10.22226562 13.04648437 10.17578125 14.26171875 C10.11777344 15.16535156 10.05976563 16.06898437 10 17 C8.44219668 17.67756882 6.87849904 18.34159457 5.3125 19 C4.00732422 19.556875 4.00732422 19.556875 2.67578125 20.125 C-0.0572002 21.01870488 -2.14700934 21.16449676 -5 21 C-4.34 19.9275 -3.68 18.855 -3 17.75 C-0.55752725 12.97646554 -0.71306678 8.70972009 -0.95703125 3.44140625 C-0.97121094 2.63574219 -0.98539063 1.83007812 -1 1 C-0.67 0.67 -0.34 0.34 0 0 Z " fill="#E01F31" transform="translate(9,9)"/>
<path d="M0 0 C4.44105142 1.73309324 7.79876223 4.26446301 9.73828125 8.671875 C10.01027344 9.44015625 10.28226563 10.2084375 10.5625 11 C9.32215588 12.32162881 8.06981374 13.63200453 6.8125 14.9375 C6.11640625 15.66839844 5.4203125 16.39929688 4.703125 17.15234375 C2.55650275 19.00517646 1.32717068 19.60771565 -1.4375 20 C-1.51909574 15.83861737 -1.41998524 12.0527516 -0.4375 8 C-1.22125 7.690625 -2.005 7.38125 -2.8125 7.0625 C-5.4375 6 -5.4375 6 -7.4375 5 C-7.4375 4.34 -7.4375 3.68 -7.4375 3 C-4.89318491 1.03724264 -3.25111674 0 0 0 Z " fill="#E01D2F" transform="translate(19.4375,5)"/>
<path d="M0 0 C3.96670899 0.44074544 6.68811135 1.82361603 10 4 C9.875 5.75 9.875 5.75 9 8 C6.1875 10.3125 6.1875 10.3125 3 12 C0.80078125 11.60546875 0.80078125 11.60546875 -1 11 C-1.02688151 9.35425434 -1.04634123 7.70838587 -1.0625 6.0625 C-1.07410156 5.14597656 -1.08570313 4.22945312 -1.09765625 3.28515625 C-1 1 -1 1 0 0 Z " fill="#FBEDEE" transform="translate(9,9)"/>
<path d="M0 0 C5.41390868 0.46671627 9.20517932 1.24297811 14 4 C11.16569547 7.2542015 9.31392226 8.5206753 5 9 C4.16396622 7.68921847 3.3312426 6.37632511 2.5 5.0625 C2.0359375 4.33160156 1.571875 3.60070312 1.09375 2.84765625 C0 1 0 1 0 0 Z " fill="#9C1C1F" transform="translate(4,0)"/>
<path d="M0 0 C2.3828125 -0.29296875 2.3828125 -0.29296875 5.125 -0.1875 C6.03507812 -0.16042969 6.94515625 -0.13335937 7.8828125 -0.10546875 C8.58148438 -0.07066406 9.28015625 -0.03585937 10 0 C3.5546875 7.84179688 3.5546875 7.84179688 0 10 C-0.66 10 -1.32 10 -2 10 C-2.25 3.375 -2.25 3.375 0 0 Z " fill="#C61F30" transform="translate(20,15)"/>
<path d="M0 0 C2.64 1.65 5.28 3.3 8 5 C6.66511872 8.59391114 5.03977277 11.75490696 3 15 C0.33684806 12.33684806 0.05573507 10.34655932 -0.09765625 6.640625 C-0.06510417 4.42708333 -0.03255208 2.21354167 0 0 Z " fill="#9C1C1F" transform="translate(1,15)"/>
<path d="M0 0 C0 2.64 0 5.28 0 8 C-5.875 5.25 -5.875 5.25 -7 3 C-1.125 0 -1.125 0 0 0 Z " fill="#DD1D2E" transform="translate(8,11)"/>
<path d="M0 0 C0 2.64 0 5.28 0 8 C-1.98 7.01 -3.96 6.02 -6 5 C-6 4.34 -6 3.68 -6 3 C-1.5 0 -1.5 0 0 0 Z " fill="#C52534" transform="translate(18,5)"/>
</svg>
