<svg height="24" viewBox="0 0 25 24" width="25" >
  <g clip-rule="evenodd" fill-rule="evenodd">
    <path d="m11.8572 5.57143c-3.077 0-5.57142 2.49441-5.57142 5.57147 0 3.077 2.49442 5.5714 5.57142 5.5714 1.4909 0 2.845-.5856 3.8448-1.5393.0277-.0339.0573-.0668.0889-.0984.0317-.0317.0645-.0613.0985-.0889.9537-.9999 1.5392-2.354 1.5392-3.8448 0-3.07706-2.4944-5.57147-5.5714-5.57147zm6.5952 10.34837c.9736-1.3418 1.5477-2.9923 1.5477-4.7769 0-4.49722-3.6457-8.1429-8.1429-8.1429-4.49716 0-8.14284 3.64568-8.14284 8.1429 0 4.4971 3.64568 8.1428 8.14284 8.1428 1.7846 0 3.4351-.5741 4.7769-1.5476l2.8854 2.8853c.5021.5021 1.3162.5021 1.8183 0s.5021-1.3161 0-1.8183z"></path>
    <path d="m11.8572 5.57143c-3.077 0-5.57142 2.49441-5.57142 5.57147 0 3.077 2.49442 5.5714 5.57142 5.5714 1.4909 0 2.845-.5856 3.8448-1.5393.0277-.0339.0573-.0668.0889-.0984.0317-.0317.0645-.0613.0985-.0889.9537-.9999 1.5392-2.354 1.5392-3.8448 0-3.07706-2.4944-5.57147-5.5714-5.57147zm6.5952 10.34837c.9736-1.3418 1.5477-2.9923 1.5477-4.7769 0-4.49722-3.6457-8.1429-8.1429-8.1429-4.49716 0-8.14284 3.64568-8.14284 8.1429 0 4.4971 3.64568 8.1428 8.14284 8.1428 1.7846 0 3.4351-.5741 4.7769-1.5476l2.8854 2.8853c.5021.5021 1.3162.5021 1.8183 0s.5021-1.3161 0-1.8183z" ></path>
  </g>
</svg>