<svg class="SVGInline-svg SVG-component__content-svg" viewBox="0 0 30 30" fill="none" xmlns="http://www.w3.org/2000/svg"><path d="M0 6.00006H3.99281L10.8993 18.9676L13.5107 14.6097L8.63309 6.00006H12.6259L19.5324 18.9676L26.3309 6.00006H30L20.8372 22.8406C20.2731 23.8775 18.7683 23.8901 18.1863 22.8628L15.0763 17.3733L12.195 22.7989C11.6383 23.8472 10.1223 23.8674 9.53703 22.8343L0 6.00006Z" fill="url(#paint0_linear_3531_18291)"></path><path fill-rule="evenodd" clip-rule="evenodd" d="M3.99281 6.00006H0L9.53703 22.8343C10.1223 23.8674 11.6383 23.8472 12.195 22.7989L15.0763 17.3733L18.1863 22.8628C18.7683 23.8901 20.2731 23.8775 20.8372 22.8406L30 6.00006H26.3309L19.5324 18.9676L12.6259 6.00006H8.63309L13.5107 14.6097L10.8993 18.9676L3.99281 6.00006ZM10.1035 6.85039L14.506 14.6216L10.8549 20.7147L3.4708 6.85039H1.47036L10.2909 22.4199C10.5417 22.8627 11.1915 22.854 11.4301 22.4048L15.0518 15.5849L18.9402 22.4485C19.1896 22.8887 19.8345 22.8833 20.0763 22.439L28.5579 6.85039H26.8568L19.5384 20.8094L12.1039 6.85039H10.1035Z" fill="url(#paint1_linear_3531_18291)"></path><defs><linearGradient id="paint0_linear_3531_18291" x1="35.9353" y1="5.78482" x2="35.9353" y2="25.3425" gradientUnits="userSpaceOnUse"><stop stop-color="#024DAA"></stop><stop offset="0.551387" stop-color="#0050A7"></stop><stop offset="1" stop-color="#0053AD"></stop></linearGradient><linearGradient id="paint1_linear_3531_18291" x1="35.9352" y1="5.78482" x2="35.9352" y2="24.2796" gradientUnits="userSpaceOnUse"><stop offset="0.0646739" stop-color="#FFF4FC"></stop><stop offset="0.276414" stop-color="#6EB0D8"></stop><stop offset="0.454836" stop-color="#FFF4FC"></stop><stop offset="0.560774" stop-color="#369CCE"></stop><stop offset="0.833982" stop-color="#F9FCFF"></stop><stop offset="1" stop-color="#9CC0E0"></stop></linearGradient></defs></svg>