<svg class="Ui-root css-2qgrgz" fill="none" height="24" viewBox="0 0 24 24" width="24" xmlns="http://www.w3.org/2000/svg" xmlns:xlink="http://www.w3.org/1999/xlink"><filter id=":rfd:-filter" color-interpolation-filters="sRGB" filterUnits="userSpaceOnUse" height="23.8" width="18" x="3" y="0"><feFlood flood-opacity="0" result="BackgroundImageFix"></feFlood><feColorMatrix in="SourceAlpha" result="hardAlpha" type="matrix" values="0 0 0 0 0 0 0 0 0 0 0 0 0 0 0 0 0 0 127 0"></feColorMatrix><feOffset dy="1"></feOffset><feComposite in2="hardAlpha" operator="out"></feComposite><feColorMatrix type="matrix" values="0 0 0 0 0.345098 0 0 0 0 0 0 0 0 0 0.913725 0 0 0 1 0"></feColorMatrix><feBlend in2="BackgroundImageFix" mode="normal" result="effect1_dropShadow_13_20084"></feBlend><feBlend in="SourceGraphic" in2="effect1_dropShadow_13_20084" mode="normal" result="shape"></feBlend></filter><linearGradient id=":rfd:-gradient" gradientUnits="userSpaceOnUse" x1="4" x2="23.5048" y1="2.75159" y2="16.3263"><stop class="Ui-topHalf" offset="0" stop-color="#ffdb00"></stop><stop class="Ui-topHalf" offset=".473958" stop-color="#ffdb00"></stop><stop class="Ui-topHalf" offset=".474058" stop-color="#ffdb00" stop-opacity="0"></stop></linearGradient><g class="Ui-outlineFilter" filter="url(#:rfd:-filter)"><path class="Ui-bottomHalf" d="m10.4 1c-.2122 0-.41566.08429-.56569.23431-.15002.15003-.23431.35352-.23431.56569 0 4.0456-5.6 7.2-5.6 12.8 0 4.2543 4.6108 7.0047 6.2344 7.1828.0544.0115.1656.0172.1656.0172.2122 0 .4157-.0843.5657-.2343s.2343-.3535.2343-.5657c-.0001-.1188-.0266-.2362-.0777-.3435s-.1254-.2018-.2176-.2768v-.0016c-.728-.5904-2.1047-2.3032-2.1047-3.8672 0-2.5672 2.4-3.5109 2.4-3.5109-1.3688 3.872 3.1163 4.3398 4.0188 8.1734h.0015c.0394.1775.1381.3363.2799.4502.1417.1139.318.1761.4998.1764.1685-.0004.3747-.0868.5109-.1859-.0137.0114.0145-.0105 0 0 .1302-.0846 3.4891-2.3061 3.4891-7.0141 0-1.9221-.9613-5.2236-1.6531-6.68594l-.0016-.00469-.0015-.00312c-.059-.14923-.1614-.27731-.294-.36759-.1326-.09027-.2894-.13859-.4498-.13866-.1868.00018-.3677.06574-.5113.18532-.1435.11958-.2407.28564-.2746.46937v.00312c-.002.00875-.3694 1.64061-1.6141 2.54219 0-3.76931-2.7213-7.66271-4.1562-9.27344-.0216-.02916-.0451-.05683-.0704-.08281-.0744-.07692-.1635-.13813-.262-.18s-.2044-.06355-.3114-.06375z" fill="#ffca00"></path><path d="m10.4 1c-.2122 0-.41566.08429-.56569.23431-.15002.15003-.23431.35352-.23431.56569 0 4.0456-5.6 7.2-5.6 12.8 0 4.2543 4.6108 7.0047 6.2344 7.1828.0544.0115.1656.0172.1656.0172.2122 0 .4157-.0843.5657-.2343s.2343-.3535.2343-.5657c-.0001-.1188-.0266-.2362-.0777-.3435s-.1254-.2018-.2176-.2768v-.0016c-.728-.5904-2.1047-2.3032-2.1047-3.8672 0-2.5672 2.4-3.5109 2.4-3.5109-1.3688 3.872 3.1163 4.3398 4.0188 8.1734h.0015c.0394.1775.1381.3363.2799.4502.1417.1139.318.1761.4998.1764.1685-.0004.3747-.0868.5109-.1859-.0137.0114.0145-.0105 0 0 .1302-.0846 3.4891-2.3061 3.4891-7.0141 0-1.9221-.9613-5.2236-1.6531-6.68594l-.0016-.00469-.0015-.00312c-.059-.14923-.1614-.27731-.294-.36759-.1326-.09027-.2894-.13859-.4498-.13866-.1868.00018-.3677.06574-.5113.18532-.1435.11958-.2407.28564-.2746.46937v.00312c-.002.00875-.3694 1.64061-1.6141 2.54219 0-3.76931-2.7213-7.66271-4.1562-9.27344-.0216-.02916-.0451-.05683-.0704-.08281-.0744-.07692-.1635-.13813-.262-.18s-.2044-.06355-.3114-.06375z" fill="url(#:rfd:-gradient)"></path><path class="Ui-outline" d="m10.401.5h-.001c-.3448 0-.67544.136964-.91924.380761-.2438.243799-.38076.574459-.38076.919239 0 .89358-.3087 1.76349-.81285 2.67781-.42507.7709-.96838 1.53893-1.55103 2.36255-.11381.16089-.22912.3239-.34535.48946-1.39996 1.99424-2.89077 4.29818-2.89077 7.27018 0 2.3172 1.25521 4.1923 2.67063 5.4887.7108.651 1.47465 1.1687 2.17091 1.5369.67686.358 1.32541.5936 1.81856.652.0533.0092.1077.014.1363.0164.0213.0018.0402.0031.0537.0039l.0167.001.005.0003.0016.0001h.0006.0002.0001l.0257-.4993-.0257.4993c.0086.0005.0171.0007.0257.0007.3448 0 .6754-.137.9192-.3808s.3808-.5744.3808-.9192v-.0003c-.0001-.1931-.0432-.3837-.1262-.5581-.0769-.1615-.1862-.3052-.3209-.4223-.0106-.0103-.0217-.0201-.0333-.0295-.3152-.2557-.806-.7876-1.216-1.4448-.41312-.6621-.7036-1.3866-.7036-2.0341 0-1.1084.51226-1.8617 1.0401-2.3516.0382-.0355.0764-.0695.1144-.102-.0438.5428.0306 1.0337.2007 1.4891.2812.753.8066 1.3572 1.3461 1.9054.1605.1631.3228.3225.4844.4812.9607.9435 1.8946 1.8607 2.2464 3.355.0033.0142.0072.0282.0117.0418.0706.269.2257.5088.4432.6835.2303.1851.5167.2862.8122.2867h.002c.289-.0007.5802-.1276.7738-.2604.0007-.0004.0013-.0008.0019-.0012l.0098-.0064.0107-.0074.0074-.0054c.3415-.228 3.6952-2.5855 3.6952-7.4192 0-1.0255-.2532-2.3805-.5834-3.642-.3288-1.25588-.7474-2.46974-1.1092-3.23971-.0016-.00379-.0032-.00757-.0049-.01132-.0966-.23579-.2605-.43811-.4714-.58164-.2155-.1467-.4702-.22521-.7309-.22533h-.0007c-.3036.00029-.5975.10683-.8308.30115s-.3912.46416-.4463.76272c-.0001.00024-.0001.00047-.0002.00071-.0189.07606-.1071.40699-.3008.81509-.104.21888-.2347.4524-.3961.67802-.2055-1.60676-.8113-3.1745-1.5221-4.53537-.8758-1.67657-1.932-3.0792-2.6726-3.91311-.0306-.039792-.0634-.077779-.0984-.113771-.1208-.12469-.2654-.223923-.4252-.291841l-.1956.460152.1956-.460152c-.16-.068037-.3321-.103264-.506-.103598z" stroke="#5800e9" stroke-linejoin="round"></path></g></svg>